<?xml version="1.0" encoding="UTF-8" standalone="no"?>
<!-- Created with Inkscape (http://www.inkscape.org/) -->

<svg
   xmlns:dc="http://purl.org/dc/elements/1.1/"
   xmlns:cc="http://creativecommons.org/ns#"
   xmlns:rdf="http://www.w3.org/1999/02/22-rdf-syntax-ns#"
   xmlns:svg="http://www.w3.org/2000/svg"
   xmlns="http://www.w3.org/2000/svg"
   xmlns:sodipodi="http://sodipodi.sourceforge.net/DTD/sodipodi-0.dtd"
   xmlns:inkscape="http://www.inkscape.org/namespaces/inkscape"
   width="1052.3622"
   height="1488.189"
   id="svg5174"
   version="1.1"
   inkscape:version="0.48.5 r10040"
   sodipodi:docname="freejaus_a3.svg">
  <defs
     id="defs3" />
  <sodipodi:namedview
     inkscape:document-units="mm"
     id="base"
     pagecolor="#ffffff"
     bordercolor="#666666"
     borderopacity="1.0"
     inkscape:pageopacity="0.0"
     inkscape:pageshadow="2"
     inkscape:zoom="0.35"
     inkscape:cx="559.54132"
     inkscape:cy="632.65649"
     inkscape:current-layer="layer1"
     showgrid="false"
     inkscape:window-width="1366"
     inkscape:window-height="706"
     inkscape:window-x="0"
     inkscape:window-y="23"
     inkscape:window-maximized="1"
     units="mm" />
  <metadata
     id="metadata4">
    <rdf:RDF>
      <cc:Work
         rdf:about="">
        <dc:format>image/svg+xml</dc:format>
        <dc:type
           rdf:resource="http://purl.org/dc/dcmitype/StillImage" />
        <dc:title></dc:title>
      </cc:Work>
    </rdf:RDF>
  </metadata>
  <g
     inkscape:label="Layer 1"
     inkscape:groupmode="layer"
     id="layer1"
     transform="translate(0,435.82679)">
    <rect
       style="fill:#b8d946;fill-opacity:1;stroke:#000000;stroke-width:0;stroke-miterlimit:4;stroke-opacity:1;stroke-dasharray:none"
       id="rect5180-6"
       width="350.78598"
       height="1488.3348"
       x="1.2540501"
       y="-432.65012" />
    <rect
       y="-432.65012"
       x="351.99548"
       height="1488.3348"
       width="350.78598"
       id="rect5708"
       style="opacity:0.85;fill:#556270;fill-opacity:1;stroke:#000000;stroke-width:0;stroke-miterlimit:4;stroke-opacity:1;stroke-dasharray:none" />
    <rect
       style="fill:#ff6b6b;fill-opacity:1;stroke:#000000;stroke-width:0;stroke-miterlimit:4;stroke-opacity:1;stroke-dasharray:none"
       id="rect5710"
       width="350.78598"
       height="1488.3348"
       x="702.73694"
       y="-432.65012" />
    <text
       xml:space="preserve"
       style="font-size:68.99994659px;font-style:normal;font-weight:normal;line-height:125%;letter-spacing:0px;word-spacing:0px;fill:#000000;fill-opacity:1;stroke:none;display:inline;font-family:Sans"
       x="42.598675"
       y="-318.80005"
       id="text3985-6"
       sodipodi:linespacing="125%"
       transform="scale(1.219701,0.81987307)"
       inkscape:export-filename="/home/eine/freejaus-hub/design/plantillas/freejaus_a4_vcharla.png"
       inkscape:export-xdpi="300"
       inkscape:export-ydpi="300"><tspan
         sodipodi:role="line"
         id="tspan3987-7"
         x="42.598675"
         y="-318.80005"
         style="font-size:162.64219666px;font-style:normal;font-variant:normal;font-weight:bold;font-stretch:normal;letter-spacing:0px;fill:#ffffff;fill-opacity:1;font-family:Impacted;-inkscape-font-specification:Impacted Bold">PARTY HARD</tspan></text>
    <rect
       y="785.85907"
       x="-1.2944118"
       height="269.22656"
       width="1052.3579"
       id="rect5739"
       style="opacity:0.6;fill:#ffffff;fill-opacity:1;stroke:#000000;stroke-width:0;stroke-miterlimit:4;stroke-opacity:1;stroke-dasharray:none" />
    <path
       d="m 513.07381,745.03272 -478.346453,0 0,-804.071994 478.346453,0 0,804.071994 z"
       style="fill:#ffffff;fill-opacity:1;fill-rule:nonzero;stroke:none;display:inline"
       id="path3051-2-2"
       inkscape:connector-curvature="0"
       inkscape:export-filename="/home/eine/freejaus-hub/design/plantillas/freejaus_a4_vseminario.png"
       inkscape:export-xdpi="300"
       inkscape:export-ydpi="300" />
    <g
       id="g5932"
       transform="matrix(0.84678171,0,0,0.84678171,381.95494,843.00248)">
      <g
         id="g5934">
        <path
           id="path5936"
           d="m 297.55,221.849 -25.326,-12.479 -1.883,4.57 -1.992,-0.717 -5.572,4.01 -4.146,-4.131 c -0.582,0.188 -1.227,0.262 -1.896,0.193 -2.064,-0.219 -3.514,-1.736 -3.242,-3.387 l 0.451,-2.713 -5.229,-6.02 10.996,2.258 -6.742,-6.447 5.725,0.791 -11.266,-9.52 14.172,6.291 -9.904,-8.957 6.555,2.725 4.594,2.939 3.168,0.533 4.086,0.293 -1.732,-5.104 -8.588,-7.682 20.344,7.859 1.043,-0.85 -1.74,-2.807 -4.979,-3.146 7.305,0.264 -14.535,-8.572 13.213,2.588 2.125,-1.346 -6.338,-7.273 4.855,0.982 2.83,0.229 -6.549,-2.992 3.848,-0.035 -0.096,-0.025 5.592,-3.387 -6.537,-2.6 11.98,-1.318 -3.574,-2.691 3.77,-0.498 -8.85,-6.18 3.357,-0.035 -0.738,-0.354 -17.66,-2.764 25.67,-2.139 -16.617,-2.68 13.49,-3.016 -7.885,-1.143 11.117,-5.072 -16.457,-1.998 8.855,-1.924 -6.918,-0.725 0.494,-0.141 -7.123,0.018 9.043,-2.826 -6.926,-0.363 6.76,-1.922 -13.096,-0.105 15.754,-4.223 -8.393,-1.18 1.008,-0.357 -2.15,0.076 7.654,-3.321 1.158,-1.176 -22.137,2.564 16.141,-5.994 -5.674,0.514 2.049,-0.961 -11.986,2.525 23.365,-12.457 -0.107,-0.287 -0.117,-0.115 -21.709,6.084 12.662,-8.334 -3.129,0.808 2.619,-3.548 -15.697,5.024 10.859,-7.681 0.85,-1.158 -8.668,1.809 9.398,-10.371 -4.615,0.301 -3.111,1.229 -2.752,-1.875 -21.826,11.366 17.82,-15.689 -15.506,8.811 12.092,-12.704 -2.053,-2.43 -0.189,-0.121 -15.121,10.229 7.77,-10.343 -0.418,-5.316 -7.611,3.744 2.037,-3.205 -3.23,0.711 0.391,-2.494 -1.33,0.237 0.207,-5.613 -3.729,1.208 0.664,-1.913 -1.148,1.152 -0.57,-1.262 -9.693,10.062 2.549,-11.314 -2.063,0.371 1,-3.209 -2.146,1.788 -8.883,12.738 2.969,-13.511 -1.787,1.389 0.395,-2.333 -5.836,7.298 0.475,-2.258 -0.252,0.455 -2.219,-10.661 -9.467,19.066 1.377,-14.955 -0.021,0.025 -2.76,-3.982 -2.813,0.379 -0.053,-0.131 -2.689,5.492 -1.348,-9.406 -0.082,0.122 -0.742,-0.979 -6.998,10.059 -0.189,-2.547 -1.294,3.204 -2.958,-9.955 -1.864,-0.13 -2.615,23.782 -1.826,-8.952 -0.723,6.282 -1.857,-8.21 -0.596,10.007 -6.645,-22.981 -0.854,15.166 -2.082,-4.532 -0.26,6.836 -5.664,-13.538 -0.211,0.619 -1.033,-1.705 -3.582,8.028 -2.133,-4.399 -0.586,7.51 -2.475,-4.189 -1.451,-1.006 1.246,10.098 -6.046,-7.879 1.349,5.479 -7.7,-7.604 -0.151,1.817 -5.081,3.414 0.142,1.313 -6.949,-0.758 -0.707,0.875 -3.971,-1.86 2.77,8.611 -5.833,-3.087 5.05,10.242 -0.523,-0.414 1.611,2.383 -13.873,-9.143 -0.486,-0.127 0.956,4.559 -2.491,0.041 5.266,6.485 -5.927,-2.719 13.099,14.871 -11.878,-8.024 -16.379,-8.872 0.226,0.883 -2.226,-0.447 3.488,5.743 14.359,12.476 -20.488,-9.562 0.449,1.758 -4.501,0.52 2.94,6.574 4.26,3.135 -8.42,-1.74 5.443,3.875 -15.047,-2.986 0.064,0.256 2.27,1.346 9.99,10.293 -9.383,-2.641 -5.561,0.369 19.331,10.42 -2.186,-0.416 5.306,2.252 -27.305,-4.398 4.486,1.684 -2.365,4.459 21.361,6.922 -20.743,-1.268 4.3,2.537 -7.973,-0.17 4.371,3.832 -8.74,0.492 7.447,1.859 -2.439,2.127 23.495,3.42 -17.783,1.406 1.433,0.188 -4.547,2.379 22.229,1.973 -22.606,2.803 -2.86,1.77 3.475,3.574 5.844,0.215 -9.975,5.244 -0.004,0.113 14.529,2.002 -7.439,2.439 2.619,0.303 18.914,-0.879 -21.959,6.41 2.992,0.322 -4.359,2.016 10.609,1.156 -4.574,1.926 3.607,1.518 -5.642,3.273 0.03,-0.008 29.121,-7.396 -12.752,6.297 -11.889,6.012 19.342,-5.393 -15.363,9.088 -2.799,2.258 12.836,-3.277 -10.881,8.438 0.81,0.307 -0.46,2.793 2.273,-0.451 -0.646,2.666 9.743,-3.51 -5.484,6.193 13.606,-4.926 -4.541,6.725 2.682,-1.498 -1.111,5.664 1.051,-0.645 1.449,4.207 3.605,1.461 -7.4,7.463 c -3.592,-1.699 -5.971,-0.438 -7.174,0.287 l -4.65,-0.287 -0.111,-2.795 -8.07,4.506 6.334,-11.496 -0.163,-0.668 -0.064,0.018 -5.18,0.137 -1.231,-1.807 -12.434,4.479 7.871,-8.408 -0.887,-5.035 0.646,-0.66 -7.734,0.273 4.291,-3.326 0.008,-0.225 -6.906,-0.25 -14.37,2.895 12.997,-6.945 -3.666,-0.785 -14.17,3.047 8.406,-4.148 7.555,-6.063 0.053,-3.559 -23.35,3.916 19.373,-8.15 -12.467,0.637 8.581,-3.973 -13.476,-0.75 12.568,-3.668 6.244,-3.037 -4.048,-2.693 3.787,-1.242 -13.156,-1.354 7.705,-2.859 -13.556,-3.436 17.788,-3.041 0.99,-1.09 -34.907,-2.514 12.968,-1.609 -11.349,-1.008 26.022,-3.107 -2.797,-1.418 1.877,-1.41 -24.946,-3.627 28.172,-1.838 -1.779,-1.553 2.82,-2.074 -2.995,-3.656 1.328,-0.072 -11.421,-5.506 11.365,0.244 -3.925,-2.436 -5.765,-1.867 16.351,-0.492 -4.698,-1.764 4.03,-3.785 -9.613,-6.354 -13.59,-5.778 19.409,3.706 -6.983,-3.829 15.71,1.964 -26.82,-13.796 22.635,6.367 6.816,-0.17 -3.035,-3.223 3.793,-0.283 -7.396,-5.265 8.581,1.344 -2.65,-1.949 11.141,0.12 -6.938,-7.723 8.042,2.549 -2.924,-2.699 4.986,-0.463 -12.027,-10.449 16.902,7.126 -0.994,-4.227 4.098,0.822 1.135,-0.699 -16.296,-18.154 23.529,15.893 -13.062,-16.087 21.9,15.157 -0.564,-4.1 2.408,0.629 -0.128,-1.107 -11.403,-16.874 13.926,11.042 -1.375,-5.617 7.237,5.583 -4.61,-13.166 14.848,13.451 0.883,0.031 0.529,-0.654 -10.955,-24.51 15.527,16.962 -4.281,-13.091 9.355,10.01 -2.717,-11.025 9.785,11.514 -0.289,-2.344 1.789,1.243 6.156,-4.698 0.858,1.455 2.165,-8.506 2.908,6.001 1.719,-7.37 3.023,4.992 1.453,-4.289 0.164,0.396 0.158,-4.194 3.941,8.569 1.199,-3.907 4.467,5.342 0.17,-0.081 1.401,0.67 4.354,-9.71 1.492,-12.98 1.674,8.211 0.929,-8.434 3.233,14.72 0.895,-4.639 5.088,11.899 5.866,-15.814 0.975,13.106 1.529,2.015 1.217,-1.806 2.684,2.444 5.346,-10.908 0.742,19.914 10.158,-16.439 -0.668,7.26 0.074,-0.093 4.961,3.679 0.01,-0.021 8.367,0.074 -0.57,2.723 3.398,-0.151 10.77,-15.442 -5.246,19.854 0.664,0.338 3.723,1.431 0.527,-0.545 0.662,1.466 2.832,-2.839 5.617,2.86 0.334,2.924 0.912,-0.295 -0.311,7.122 0.305,-0.055 24.127,-21.836 -10.949,17.238 8.027,-4.348 -7.107,10.022 4.541,-1.209 13.16,-8.905 -13.605,17.358 23.789,-13.709 -11.031,11.588 -1.389,2.982 15.619,-6.294 -3.082,2.71 5.686,-2.959 -17.248,15.896 0.053,0.182 3.699,-1.207 5.947,0.18 1.396,4.874 -3.225,3.27 5.475,-0.846 -0.209,0.285 16.555,-5.209 -5.656,4.002 5.141,-1.646 -11.227,8.865 7.5,0.492 -1.047,0.844 12.58,-3.523 -17.051,11.46 3.379,1.251 -1.018,0.984 15.137,-0.205 -6.531,3.066 12.189,-0.111 -14.115,5.244 -1.695,1.092 14.48,-1.268 -8.096,3.512 9.635,-0.33 -11.846,4.164 15.918,1.354 -11.027,2.956 8.523,0.773 -6.451,1.834 4.281,0.225 -2.99,0.934 10.875,-0.029 -14.695,4.184 9.453,2.021 -10.371,2.256 1.129,5.756 -2.467,0.412 3.369,1.172 -4.908,2.771 0.154,0.023 -2.102,4.219 3.328,2.074 32.648,5.107 -25.35,0.551 12.709,3.176 -15.162,0.152 -5.854,4.336 9.219,4.266 -9.482,0.301 -4.514,1.787 25.021,7.689 -22.676,-1.123 7.051,4.955 -2.146,-0.172 11.402,5.818 -20.238,-4.096 5.08,5.738 -0.764,-0.166 9.43,4.736 -20.346,-3.98 -0.074,0.125 -0.063,0.973 16.053,10.148 -15.381,-3.574 2.824,3.27 -3.029,-0.545 15.043,11.107 -21.793,-8.42 1.441,3.141 14.174,10.436 -11.947,-4.902 -9.391,-2.012 9.15,8.352 -7.646,-2.27 15.013,12.684 z"
           inkscape:connector-curvature="0" />
      </g>
      <g
         id="g5938">
        <path
           id="path5940"
           d="m 197.874,92.049 c -0.266,0 -0.553,0.023 -0.844,0.047 -0.275,0.023 -0.559,0.045 -0.834,0.045 -0.074,0 -0.146,-0.002 -0.219,-0.004 -0.271,-0.014 -0.52,-0.02 -0.76,-0.02 -1.867,0 -2.879,0.354 -4.645,0.701 -1.055,0.209 -2.27,0.203 -3.117,0.531 -0.988,0.383 -1.824,1.517 -2.662,2.13 -1.227,0.892 -2.387,1.613 -3.346,2.74 -0.457,0.527 -0.914,1.123 -1.299,1.75 -0.395,0.656 -0.895,1.26 -1.213,1.902 -0.223,0.449 -0.324,0.949 -0.535,1.369 -0.322,0.643 -0.827,1.119 -1.142,1.75 -0.307,0.623 -0.436,1.367 -0.758,2.129 -0.238,0.557 -0.67,0.959 -0.914,1.441 -1.922,3.816 -2.813,7.942 -2.438,13.083 0.045,0.584 0.242,1.125 0.306,1.676 0.193,1.762 0.13,3.273 0.681,4.715 1.08,2.818 3.492,5.295 5.636,6.996 1.361,1.088 2.93,2.051 4.641,2.588 2.686,0.84 5.809,1.383 8.82,1.9 1.627,0.287 2.887,0.754 4.721,0.99 0.48,0.064 0.857,0.094 1.174,0.094 0.877,0 1.287,-0.24 2.172,-0.699 1.771,-0.93 1.045,-2.32 -0.074,-3.275 -1.324,-1.113 -3.377,-1.84 -5.248,-2.43 -3.965,-1.244 -8.311,-1.947 -11.184,-4.26 -1.172,-0.943 -3.473,-2.494 -2.811,-4.488 3.58,0.1 7.172,0.146 10.568,0.381 0.322,0.02 0.662,0.031 1.008,0.031 1.221,0 2.541,-0.131 3.633,-0.34 2.426,-0.459 4.631,-1.303 6.465,-2.203 0.846,-0.416 1.494,-1.068 2.283,-1.523 0.475,-0.271 1.016,-0.416 1.445,-0.682 0.861,-0.539 1.459,-1.436 2.434,-1.676 0.752,1.432 0.307,3.072 0.609,4.566 0.09,0.461 0.393,0.967 0.533,1.518 0.369,1.488 0.488,3.227 1.143,4.342 0.221,0.387 0.756,0.715 1.213,1.213 0.389,0.428 0.695,1 1.064,1.369 0.426,0.42 1.057,0.66 1.449,1.064 0.686,0.715 1.021,1.555 1.67,2.053 0.26,0.203 0.797,0.449 1.215,0.689 0.461,0.26 0.902,0.639 1.221,0.758 0.479,0.188 1.133,0.17 1.598,0.379 0.631,0.283 1.152,0.785 1.75,1.068 0.744,0.352 1.584,0.533 2.436,0.836 1.697,0.604 3.256,0.949 5.17,1.367 0.955,0.211 1.924,0.229 2.967,0.381 0.449,0.068 0.854,0.32 1.293,0.381 2.727,0.381 6.16,0.279 8.443,1.143 1.359,0.514 2.568,1.477 3.773,1.477 0.516,0 1.027,-0.176 1.555,-0.641 0.582,-0.516 1.328,-1.857 1.293,-2.432 -0.096,-1.477 -2.908,-2.742 -4.262,-3.428 -1.85,-0.924 -3.764,-1.389 -5.861,-1.902 -1.971,-0.477 -4.113,-1.096 -6.234,-1.441 -3.293,-0.535 -6.037,-1.262 -8.445,-2.584 -0.656,-0.363 -1.832,-0.961 -1.52,-1.832 0.154,-0.412 2.107,-0.545 2.816,-0.605 2.172,-0.188 4.307,-0.533 6.156,-0.684 1.086,-0.09 2.154,-0.035 3.352,-0.152 0.885,-0.09 1.525,-0.488 2.434,-0.84 1.623,-0.619 2.561,-1.359 3.879,-2.127 0.713,-0.414 1.527,-0.748 2.061,-1.141 0.475,-0.357 0.879,-1.051 1.441,-1.523 0.633,-0.539 1.152,-1.113 1.441,-1.596 0.34,-0.557 0.334,-1.006 0.611,-1.451 0.32,-0.51 1.018,-0.846 1.289,-1.287 0.428,-0.697 0.627,-1.803 1.07,-2.74 0.271,-0.574 0.574,-1.008 0.834,-1.674 0.256,-0.664 0.66,-1.203 0.836,-1.748 0.246,-0.75 0.449,-2.305 0.381,-3.191 -0.057,-0.756 -0.631,-1.676 -0.684,-2.438 -0.084,-1.244 0.592,-2.225 0.303,-3.65 -0.145,-0.717 -0.773,-1.096 -1.064,-1.904 -0.289,-0.795 -0.271,-1.754 -0.605,-2.431 -0.369,-0.738 -2.109,-1.947 -2.971,-2.055 -0.092,-0.014 -0.182,-0.018 -0.273,-0.018 -0.838,0 -1.736,0.42 -2.539,0.475 -0.053,0.004 -0.105,0.006 -0.158,0.006 -0.543,0 -1.146,-0.143 -1.744,-0.156 -0.02,-0.002 -0.037,-0.002 -0.057,-0.002 -0.307,0 -0.615,0.043 -0.928,0.08 -0.289,0.037 -0.582,0.076 -0.855,0.076 -0.045,0 -0.09,0 -0.137,-0.004 -0.865,-0.043 -1.682,-0.521 -2.438,-0.533 h -0.018 c -0.455,0 -0.961,0.211 -1.5,0.227 -0.051,0.002 -0.102,0.004 -0.152,0.004 -0.234,0 -0.475,-0.02 -0.719,-0.043 -0.258,-0.02 -0.514,-0.041 -0.77,-0.041 -0.088,0 -0.176,0 -0.262,0.008 -1.578,0.119 -3.176,0.852 -4.869,1.215 -1.664,0.354 -3.146,0.943 -4.643,1.523 -1.459,0.563 -3.07,0.943 -4.563,1.523 -1.342,0.518 -2.871,1.447 -3.729,2.432 -0.506,0.584 -0.885,1.348 -1.369,1.977 -0.965,1.266 -2.115,2.48 -2.891,3.805 -0.404,0.693 -0.551,1.637 -1.371,2.049 -0.992,-2.861 1.195,-5.758 0.309,-8.592 -0.176,-0.568 -0.971,-1.25 -1.451,-2.051 -0.516,-0.887 -0.771,-1.81 -1.287,-2.363 -0.275,-0.283 -1.039,-0.539 -1.449,-0.91 -0.287,-0.271 -0.471,-0.777 -0.832,-1.215 -0.32,-0.392 -0.814,-0.705 -1.064,-1.066 -0.648,-0.933 -1.184,-1.802 -2.057,-2.13 -0.354,-0.131 -0.797,-0.162 -1.268,-0.162 -0.215,0 -0.436,0.006 -0.66,0.014 -0.223,0.008 -0.451,0.016 -0.674,0.016 -0.201,0 -0.4,-0.006 -0.592,-0.021 -0.832,-0.063 -1.637,-0.545 -2.357,-0.609 -0.072,-0.008 -0.15,-0.01 -0.23,-0.01 m -16.125,26.71 c -0.047,0 -0.098,-0.004 -0.148,-0.01 -0.346,-1.371 0.412,-2.75 0.99,-3.951 1.49,-3.135 4.711,-6.305 8.211,-7.297 1.188,-0.342 2.602,-0.643 3.883,-0.762 0.242,-0.025 0.563,-0.033 0.922,-0.033 0.76,0 1.697,0.043 2.5,0.105 1.324,0.104 3.057,0.182 3.727,0.838 0.559,0.543 0.568,1.482 0.762,2.283 0.256,1.09 0.57,1.588 0.527,2.51 -0.078,1.965 -1.516,4.495 -3.039,5.172 -1.355,0.605 -3.088,0.693 -4.912,0.693 -0.367,0 -0.74,-0.002 -1.113,-0.006 -0.398,0 -0.801,-0.006 -1.199,-0.006 -1.09,0 -2.227,0.229 -3.352,0.229 -1.816,0 -3.541,-0.625 -4.936,-0.625 -0.133,0 -0.262,0.004 -0.387,0.018 -0.936,0.092 -1.581,0.842 -2.436,0.842 m 39.057,4.32 c -0.129,0 -0.24,-0.02 -0.334,-0.066 -0.684,-0.346 -0.387,-2.213 -0.156,-2.887 0.748,-2.205 2.951,-4.367 5.025,-5.402 2.35,-1.174 5.129,-2.088 8.061,-2.362 0.201,-0.02 0.406,-0.025 0.617,-0.025 0.617,0 1.268,0.064 1.936,0.133 0.646,0.061 1.322,0.127 2.01,0.127 0.078,0 0.156,0 0.232,-0.002 0.445,-0.006 0.932,-0.152 1.441,-0.152 0.816,0.006 1.561,0.322 2.586,0.533 2.215,0.441 2.111,1.477 1.293,3.348 -0.648,1.479 -1.664,2.988 -3.041,3.725 -1.213,0.645 -3.172,0.885 -5.326,1.295 -3.182,0.6 -6.496,0.963 -9.961,1.215 -0.182,0.012 -0.35,0.021 -0.514,0.021 -0.219,0 -0.424,-0.012 -0.625,-0.021 -0.207,-0.012 -0.408,-0.02 -0.613,-0.02 -0.146,0 -0.301,0.006 -0.459,0.02 -0.602,0.055 -1.557,0.52 -2.172,0.52"
           inkscape:connector-curvature="0" />
      </g>
      <g
         id="g5942">
        <path
           id="path5944"
           d="m 115.355,92.248 c -0.396,0 -0.744,0.01 -1.002,0.035 -1.301,0.135 -2.795,0.307 -4.334,0.613 -1.355,0.264 -2.758,0.686 -3.922,0.686 -0.064,0 -0.129,0 -0.189,-0.004 -0.848,-0.035 -1.533,-0.32 -2.295,-0.32 -0.096,0 -0.193,0.004 -0.291,0.012 -1.959,0.217 -3.055,1.603 -3.799,3.12 -0.641,1.313 -0.779,2.098 -0.842,4.033 -0.026,0.893 -0.168,1.857 -0.15,2.59 0.066,2.109 0.59,4.34 0.687,6.693 0.276,6.926 -0.206,14.534 0.38,21.372 0.125,1.496 0.521,2.99 0.688,4.563 0.163,1.621 0.076,3.398 0.374,4.873 0.147,0.711 0.603,1.672 0.914,2.508 0.341,0.902 1.042,1.596 1.829,1.596 1.471,0 1.95,-1.893 2.359,-3.646 0.383,-1.664 0.926,-3.369 1.139,-4.869 0.315,-2.238 0.315,-3.973 1.064,-5.48 0.447,-0.893 0.955,-1.08 1.441,-1.898 0.387,-0.641 0.961,-1.619 1.523,-1.904 0.676,-0.34 1.709,-0.363 2.59,-0.609 0.863,-0.242 1.596,-0.703 2.357,-0.914 0.761,-0.205 1.568,-0.316 2.359,-0.533 0.896,-0.242 1.77,-0.207 2.584,-0.381 0.598,-0.117 1.09,-0.471 1.594,-0.527 1.336,-0.164 2.906,-0.217 4.342,-0.234 0.385,0 0.824,0.041 1.272,0.076 0.438,0.035 0.89,0.07 1.319,0.07 0.434,0 0.848,-0.035 1.207,-0.146 1.334,-0.4 2.771,-2.434 2.817,-4.408 0.007,-0.461 -0.151,-0.945 -0.306,-1.521 -0.42,-1.594 -0.908,-1.713 -2.357,-2.281 -0.764,-0.297 -1.38,-0.666 -2.057,-0.838 -3.566,-0.915 -8.316,-0.817 -12.473,-1.065 -1.119,-0.064 -3.068,0.004 -4.183,-0.377 -0.716,-0.25 -1.999,-1.42 -2.128,-1.982 -0.166,-0.68 0.072,-1.803 0.072,-2.51 0.006,-1.256 -0.398,-2.305 0.078,-3.344 0.285,-0.619 1.654,-1.369 2.277,-1.596 1.439,-0.518 2.996,-0.535 4.949,-0.684 1.846,-0.148 3.821,-0.693 5.777,-0.84 0.488,-0.035 0.973,-0.049 1.454,-0.049 0.769,0 1.524,0.035 2.261,0.066 0.715,0.035 1.408,0.066 2.074,0.066 0.201,0 0.404,-0.004 0.604,-0.01 2.225,-0.063 3.324,-0.631 3.956,-2.203 0.325,-0.818 0.874,-1.404 0.835,-2.279 -0.084,-1.949 -2.09,-3.175 -3.725,-3.733 -0.678,-0.225 -1.451,-0.295 -2.209,-0.527 -0.615,-0.193 -1.105,-0.643 -1.75,-0.762 -0.916,-0.176 -1.959,-0.09 -3.041,-0.152 -1.969,-0.119 -3.896,-0.273 -5.936,-0.307 -0.737,-0.016 -1.528,-0.039 -2.187,-0.039"
           inkscape:connector-curvature="0" />
      </g>
      <g
         id="g5946">
        <path
           id="path5948"
           d="m 125.041,143.521 c -0.148,0 -0.289,0.012 -0.416,0.033 -1.062,0.189 -1.875,1.301 -2.357,1.906 -0.48,0.596 -1.068,1.451 -1.295,2.201 -0.551,1.813 -0.556,4.518 -0.762,7.002 -0.063,0.732 -0.328,1.424 -0.381,2.129 -0.209,2.801 0.107,5.119 0.076,7.758 -0.012,1.299 -0.229,2.582 -0.229,3.803 0,0.994 0.084,2.432 0,3.732 -0.087,1.309 -0.023,3.029 -0.381,3.5 -0.449,0.59 -1.336,0.686 -2.255,0.686 -0.212,0 -0.427,-0.002 -0.638,-0.012 -0.219,0 -0.436,-0.006 -0.645,-0.006 -0.17,0 -0.336,0.004 -0.492,0.016 -1.135,0.084 -2.311,0.539 -3.65,0.605 -4.033,0.223 -8.117,0.141 -11.258,1.604 -2.273,1.051 -3.479,2.082 -4.949,3.879 -0.42,0.518 -1.057,1.436 -1.137,2.051 -0.043,0.334 -0.102,1.354 0.383,1.676 0.133,0.09 0.281,0.123 0.438,0.123 0.426,0 0.918,-0.252 1.383,-0.275 0.188,-0.012 0.403,-0.018 0.633,-0.018 0.826,0 1.832,0.076 2.336,0.242 0.504,0.174 0.885,0.801 1.521,1.143 0.402,0.217 0.924,0.256 1.293,0.455 0.797,0.439 1.177,1.365 1.897,1.752 1.501,0.799 3.841,0.693 6.091,0.758 0.563,0.018 1.086,0.205 1.598,0.229 0.029,0.004 0.063,0.004 0.098,0.004 0.176,0 0.361,-0.023 0.541,-0.041 0.193,-0.027 0.391,-0.053 0.576,-0.053 0.078,0 0.154,0.006 0.227,0.018 2.021,0.316 2.748,2.555 4.793,2.961 0.209,0.045 0.426,0.063 0.649,0.063 0.942,0 1.979,-0.311 2.624,-0.439 0.914,-0.186 1.506,-0.123 1.748,-0.303 0.409,-0.295 1.183,-2.186 1.297,-2.738 0.141,-0.727 -0.027,-1.453 0.074,-2.209 0.057,-0.426 0.27,-0.961 0.381,-1.445 0.117,-0.564 0.105,-1.184 0.227,-1.594 0.136,-0.477 0.641,-0.967 0.834,-1.449 0.527,-1.305 0.791,-2.881 0.989,-4.559 0.079,-0.648 0.255,-1.289 0.306,-1.904 0.074,-0.912 0.246,-1.949 0.229,-2.811 -0.007,-0.482 -0.229,-0.967 -0.229,-1.449 0,-1.234 0.053,-2.645 0.229,-3.881 0.09,-0.645 0.346,-1.299 0.38,-1.979 0.106,-2.123 -0.29,-4.76 -0.228,-6.617 0.047,-1.404 0.473,-2.836 0.381,-4.264 -0.047,-0.709 -0.324,-1.453 -0.307,-2.129 0.035,-1.318 1.16,-2.488 1.143,-4.035 -0.006,-0.4 -0.309,-0.914 -0.303,-1.367 0.006,-1.006 0.535,-1.799 0.228,-2.664 -0.458,-1.286 -2.416,-2.088 -3.691,-2.088"
           inkscape:connector-curvature="0" />
      </g>
      <g
         id="g5950">
        <path
           id="path5952"
           d="m 212.229,146.003 c -0.176,0 -0.371,0.02 -0.586,0.064 -0.611,0.117 -1.67,0.84 -2.051,1.441 -0.383,0.615 -0.477,1.566 -0.758,2.209 -0.578,1.291 -1.695,2.006 -2.361,3.041 -0.318,0.488 -1.232,2.527 -1.293,2.971 -0.055,0.416 0.113,0.875 0.074,1.289 -0.041,0.457 -0.311,0.879 -0.383,1.297 -0.168,0.994 -0.283,2.174 -0.225,3.193 0.039,0.656 0.268,1.301 0.225,1.98 -0.027,0.557 -0.303,1.252 -0.455,1.979 -0.156,0.752 -0.145,1.57 -0.301,2.203 -0.391,1.561 -1.613,4.586 -2.436,5.785 -0.592,0.861 -1.221,1.201 -1.844,1.201 -1.225,0 -2.422,-1.316 -3.252,-2.572 -0.863,-1.305 -1.436,-2.795 -2.207,-4.342 -0.701,-1.408 -1.564,-3.129 -1.826,-4.713 -0.24,-1.424 -0.293,-2.916 -0.609,-4.26 -0.338,-1.457 -0.742,-2.912 -0.756,-4.182 -0.008,-0.58 0.219,-1.043 0.15,-1.525 -0.068,-0.473 -0.818,-1.617 -1.143,-1.975 -0.348,-0.391 -1.158,-0.936 -1.678,-1.451 -0.857,-0.857 -1.355,-1.555 -2.486,-1.555 -0.328,0 -0.703,0.059 -1.158,0.188 -0.518,0.146 -1.186,0.271 -1.748,0.459 -0.871,0.285 -0.967,1.064 -1.832,1.369 -0.652,0.229 -1.361,-0.027 -1.594,0.529 -0.289,0.689 0.396,1.289 0.533,1.828 0.123,0.537 0.094,1.117 0.227,1.67 0.131,0.572 0.416,1.107 0.533,1.68 0.125,0.598 0.133,1.277 0.229,1.9 0.09,0.621 0.369,1.176 0.453,1.752 0.129,0.861 0.164,1.781 0.229,2.664 0.063,0.855 0.32,1.682 0.381,2.504 0.039,0.479 -0.041,0.979 0,1.447 0.199,2.309 1.242,5.01 2.057,6.922 0.322,0.762 0.455,1.623 0.76,2.283 0.223,0.48 0.658,0.934 0.91,1.443 0.924,1.885 1.539,3.408 2.893,4.949 1.109,1.266 2.156,1.799 3.65,2.584 0.58,0.307 1.254,0.793 1.748,0.84 0.018,0 0.033,0.004 0.051,0.004 0.295,0 0.74,-0.182 1.248,-0.238 0.873,-0.09 1.9,-0.066 2.355,-0.225 0.488,-0.17 0.967,-0.766 1.6,-1.064 0.451,-0.217 1.002,-0.293 1.441,-0.533 0.439,-0.246 0.906,-0.803 1.521,-1.215 1.158,-0.791 3.156,-1.84 3.652,-2.971 0.225,-0.51 0.211,-1.275 0.381,-1.67 0.58,-1.348 2.25,-1.711 3.043,-2.969 0.586,-0.928 0.262,-1.781 0.527,-3.27 0.227,-1.252 1.445,-2.217 1.598,-3.652 0.115,-0.992 -0.297,-2.285 -0.074,-3.576 0.082,-0.449 0.545,-0.93 0.689,-1.521 0.1,-0.445 0.049,-0.967 0.15,-1.447 0.113,-0.564 0.465,-1.057 0.531,-1.596 0.059,-0.479 -0.053,-0.943 0,-1.445 0.051,-0.498 0.225,-0.934 0.225,-1.449 0.008,-1.141 -0.477,-1.84 -0.527,-2.811 -0.063,-1.051 0.324,-2.58 0.607,-3.58 0.471,-1.652 0.75,-3.861 -1.088,-3.861"
           inkscape:connector-curvature="0" />
      </g>
      <g
         id="g5954">
        <path
           id="path5956"
           d="m 151.75,151.718 c -0.133,0 -0.273,0.039 -0.426,0.133 -0.563,0.334 -1.086,0.158 -1.676,0.301 -0.398,0.094 -1.664,0.762 -1.897,0.988 -0.528,0.527 -0.956,2.408 -1.296,3.652 -0.409,1.488 -0.926,2.842 -1.217,3.727 -0.787,2.373 -1.776,5.051 -2.59,7.381 -0.892,2.578 -2.197,4.65 -3.117,6.77 -0.973,2.24 -1.817,4.928 -2.433,7.535 -0.216,0.896 -0.409,2.281 -0.38,3.117 0.018,0.471 0.273,1.092 0.38,1.748 0.079,0.514 0.028,0.996 0.075,1.445 0.153,1.391 1.459,2.68 2.438,2.738 0.037,0 0.076,0.004 0.115,0.004 0.861,0 1.889,-0.58 2.24,-1.223 0.295,-0.539 0.353,-1.531 0.607,-2.203 0.508,-1.314 1.58,-2.697 2.285,-3.805 0.352,-0.557 0.57,-1.113 0.906,-1.217 0.135,-0.037 0.27,-0.055 0.402,-0.055 0.282,0 0.563,0.072 0.85,0.146 0.285,0.07 0.575,0.143 0.887,0.143 0.049,0 0.098,0 0.146,-0.006 0.422,-0.029 0.837,-0.398 1.371,-0.457 0.306,-0.025 0.603,-0.025 0.88,-0.025 0.07,0 0.145,0 0.215,0 0.422,0 0.813,-0.023 1.189,-0.199 0.6,-0.285 0.651,-0.891 1.367,-1.295 0.461,-0.262 1.182,-0.34 1.822,-0.609 1.744,-0.73 4.061,-0.984 5.783,-1.521 0.824,-0.258 1.716,-1.33 2.672,-1.33 0.098,0 0.193,0.012 0.292,0.035 0.54,0.135 0.687,0.842 0.989,1.523 1.407,3.186 2.42,5.713 3.879,8.9 0.477,1.035 1.08,2.602 2.287,2.602 0.072,0 0.146,-0.006 0.222,-0.018 0.655,-0.096 0.763,-0.699 1.222,-1.061 0.348,-0.283 0.777,-0.318 0.988,-0.535 0.563,-0.59 0.932,-1.908 0.988,-2.74 0.119,-1.84 -0.566,-3.342 -0.913,-4.637 -0.286,-1.076 -0.41,-2.248 -0.837,-3.275 -0.452,-1.09 -1.067,-2.201 -1.141,-2.963 -0.137,-1.336 0.717,-2.402 0.302,-3.652 -0.416,-0.363 -1.507,-0.15 -2.052,-0.381 -1.158,-0.486 -2.577,-3.633 -3.198,-4.717 -1.929,-3.422 -4.435,-6.07 -6.69,-9.129 -1.407,-1.922 -2.884,-4.318 -5.093,-4.947 -0.341,-0.092 -0.784,-0.035 -1.218,-0.15 -0.678,-0.176 -1.107,-0.738 -1.625,-0.738 m 0.154,21.908 c -0.453,0 -0.883,-0.047 -1.27,-0.17 -0.131,-2.646 1.869,-4.783 2.512,-6.773 0.235,-0.723 0.186,-1.93 1.051,-1.93 0.074,0 0.156,0.008 0.244,0.025 0.736,0.158 2.311,1.711 2.811,2.285 0.602,0.68 1.125,1.539 1.676,2.355 0.313,0.461 1.578,1.936 1.449,2.586 -0.164,0.797 -3.932,0.906 -4.795,1.07 -1.163,0.224 -2.502,0.552 -3.678,0.552"
           inkscape:connector-curvature="0" />
      </g>
      <g
         id="g5958">
        <path
           id="path5960"
           d="m 159.178,93.162 c -0.279,0 -0.543,0.012 -0.783,0.035 -0.677,0.068 -1.375,0.125 -2.053,0.307 -0.557,0.148 -1.05,0.55 -1.595,0.681 -0.521,0.125 -1.079,0.029 -1.601,0.154 -0.779,0.188 -1.664,0.664 -2.432,0.988 -0.885,0.373 -1.839,0.568 -2.584,0.914 -0.773,0.354 -1.518,0.869 -2.209,1.291 -0.732,0.453 -1.313,1.066 -2.051,1.449 -1.188,0.602 -3.143,0.885 -3.881,1.75 -0.272,0.316 -0.602,1.326 -0.84,2.129 -0.393,1.33 -0.967,2.709 -0.834,4.105 0.061,0.643 0.588,1.148 0.686,1.902 0.369,2.881 -0.129,6.038 -0.08,9.127 0.041,2.041 0.064,4.104 0.154,6.156 0.137,3.152 0.652,6.285 0.835,9.285 0.158,2.607 -0.263,5.371 0,8.295 0.097,1.09 0.438,2.361 0.687,3.5 0.285,1.301 1.001,2.215 1.977,2.277 0.072,0.006 0.141,0.008 0.207,0.008 1.303,0 1.465,-0.949 2.078,-1.91 0.537,-0.846 1.107,-1.191 1.596,-2.053 0.487,-0.861 0.834,-1.969 1.215,-2.963 0.826,-2.145 1.443,-3.234 1.751,-5.785 0.118,-0.982 -0.028,-2.266 0.686,-2.438 0.04,-0.012 0.081,-0.012 0.124,-0.012 0.445,0 1.229,0.398 1.627,0.627 1.459,0.832 2.057,1.617 3.266,2.656 0.648,0.551 1.387,1.029 1.98,1.604 1.102,1.055 2.438,2.607 3.727,3.498 0.51,0.354 1.217,0.65 1.822,1.063 0.954,0.654 1.592,1.451 2.359,1.75 0.271,0.105 0.711,0.154 1.152,0.154 0.479,0 0.955,-0.059 1.209,-0.154 1.354,-0.516 2.715,-3.551 2.584,-5.324 -0.068,-0.873 -0.824,-1.893 -1.369,-2.736 -1.646,-2.566 -3.821,-4.434 -5.855,-6.473 -2.236,-2.238 -3.855,-4.203 -6.087,-6.236 -0.638,-0.584 -1.88,-1.369 -1.599,-2.359 0.192,-0.658 1.037,-0.764 2.004,-0.764 0.211,0 0.428,0.006 0.645,0.012 0.217,0.002 0.434,0.006 0.646,0.006 0.174,0 0.346,-0.004 0.512,-0.016 2.426,-0.135 3,-0.756 4.561,-1.668 0.703,-0.416 1.546,-0.832 2.056,-1.293 0.563,-0.502 1.642,-1.768 1.903,-2.355 0.223,-0.52 0.215,-1.178 0.453,-1.68 0.363,-0.766 1.166,-1.158 1.37,-2.047 0.097,-0.432 0.018,-0.881 0.075,-1.371 0.09,-0.768 0.47,-1.545 0.533,-2.209 0.066,-0.721 -0.028,-1.592 -0.152,-2.43 -0.491,-3.369 -1.295,-5.652 -2.813,-7.687 -0.648,-0.857 -1.568,-2.146 -2.284,-2.583 -1.099,-0.671 -3.552,-1.177 -5.378,-1.177 m -9.898,19.514 c -0.053,0 -0.105,-0.004 -0.163,-0.01 -0.441,-0.795 -0.459,-2.002 -0.459,-3.113 0,-1.234 0.24,-2.531 0.229,-3.656 0,-0.51 -0.257,-1.121 -0.15,-1.594 0.133,-0.602 1.212,-1.113 1.979,-1.598 0.658,-0.414 1.602,-0.955 2.357,-1.141 0.662,-0.164 1.559,-0.313 2.387,-0.313 0.555,0 1.082,0.066 1.492,0.238 0.551,0.229 1.306,1.215 1.75,1.824 0.856,1.182 1.437,2.871 0.301,4.105 -0.956,1.039 -2.943,1.518 -4.255,2.283 -0.96,0.559 -1.88,1.092 -2.817,1.594 -0.87,0.473 -1.62,1.381 -2.651,1.381"
           inkscape:connector-curvature="0" />
      </g>
      <g
         id="g5962">
        <path
           id="path5964"
           d="m 235.38,147.966 c -0.049,0 -0.1,0.002 -0.15,0.002 -1.486,0.041 -2.301,0.621 -3.426,0.99 -0.977,0.316 -1.975,0.443 -2.666,0.76 -1.412,0.646 -2.578,1.881 -3.953,2.586 -0.459,0.232 -1.021,0.297 -1.447,0.533 -2.426,1.369 -4.367,5.203 -4.635,8.443 -0.184,2.125 -0.213,5.16 0,7.453 0.164,1.828 0.877,3.029 1.746,4.342 1.117,1.678 2.357,4.189 4.855,4.189 0.078,0 0.16,-0.004 0.242,-0.01 0.951,-0.064 1.865,-0.793 2.965,-0.834 0.064,-0.004 0.127,-0.004 0.191,-0.004 0.768,0 1.818,0.15 2.701,0.305 0.852,0.162 2.027,0.305 2.666,0.533 0.902,0.332 1.688,1.229 2.43,1.904 0.625,0.568 1.932,1.557 1.83,2.512 -0.051,0.436 -0.824,1.119 -1.523,1.367 -1.164,0.414 -2.688,0.357 -4.033,0.686 -1.434,0.35 -2.623,1.184 -4.186,1.445 -0.436,0.072 -0.875,0.1 -1.316,0.1 -1.639,0 -3.295,-0.402 -4.695,-0.48 -0.455,-0.027 -0.893,-0.039 -1.314,-0.039 -3.061,0 -5.318,0.648 -8.113,1.102 -3.107,0.51 -6.967,0.305 -9.432,1.375 -0.635,0.271 -1.545,0.709 -2.283,1.215 -1.277,0.861 -3.334,2.092 -3.65,3.498 -0.139,0.604 0.053,1.336 0.072,1.979 0.023,0.67 -0.09,1.391 0.152,1.9 0.355,0.742 1.709,1.158 2.846,1.158 0.121,0 0.234,-0.006 0.348,-0.016 0.818,-0.072 1.424,-0.688 2.066,-0.688 0.018,0 0.043,0 0.064,0 0.635,0.041 1.314,0.729 1.904,0.99 0.656,0.289 1.43,0.727 2.207,0.762 0.031,0 0.057,0.002 0.088,0.002 0.537,0 1.021,-0.246 1.584,-0.305 0.076,-0.008 0.156,-0.012 0.236,-0.012 0.148,0 0.299,0.012 0.455,0.018 0.148,0.01 0.299,0.021 0.451,0.021 0.129,0 0.252,-0.01 0.377,-0.027 0.555,-0.084 1.043,-0.43 1.598,-0.533 0.65,-0.119 1.359,-0.125 2.057,-0.229 0.664,-0.1 1.354,-0.271 1.979,-0.307 0.055,-0.004 0.113,-0.004 0.172,-0.004 0.258,0 0.514,0.021 0.768,0.045 0.238,0.02 0.477,0.043 0.717,0.043 0.082,0 0.162,-0.002 0.246,-0.008 1.055,-0.063 2.197,-0.361 3.273,-0.457 1.125,-0.1 2.334,-0.186 3.266,-0.455 1.236,-0.354 2.316,-1.127 3.496,-1.594 1.131,-0.447 2.568,-1.283 3.732,-1.449 0.178,-0.027 0.357,-0.033 0.533,-0.033 0.23,0 0.457,0.016 0.686,0.027 0.211,0.012 0.416,0.023 0.621,0.023 0.123,0 0.244,-0.004 0.365,-0.018 0.52,-0.051 1.031,-0.262 1.521,-0.299 0.592,-0.053 1.154,0.008 1.67,-0.08 2.713,-0.48 4.904,-1.898 6.471,-3.574 1.539,-1.654 3.115,-3.635 2.74,-6.998 -0.291,-2.596 -2.166,-4.563 -3.883,-6.238 -2.34,-2.287 -3.891,-3.891 -6.846,-5.33 -1.004,-0.484 -1.883,-1.164 -2.893,-1.521 -1.371,-0.482 -2.883,-0.447 -3.193,-1.67 -0.287,-1.133 0.498,-2.943 1.215,-3.727 0.924,-1.01 1.842,-1.143 3.424,-1.449 0.535,-0.1 1.129,-0.244 1.584,-0.244 0.088,0 0.17,0.006 0.246,0.016 0.914,0.154 1.193,1.178 2.131,1.297 0.084,0.012 0.17,0.016 0.26,0.016 0.76,0 1.758,-0.338 2.479,-0.549 1.91,-0.574 3.043,-0.861 4.105,-2.205 0.457,-0.584 0.984,-1.119 1.291,-1.676 0.32,-0.584 0.932,-1.611 0.838,-2.588 -0.084,-0.838 -0.857,-1.15 -1.066,-2.053 -0.252,-1.084 -0.102,-1.934 -0.764,-2.893 -1.1,-0.398 -2.072,-1.514 -3.27,-1.898 -0.393,-0.131 -0.902,-0.082 -1.371,-0.23 -0.563,-0.186 -0.975,-0.678 -1.516,-0.756 -0.172,-0.027 -0.365,-0.035 -0.568,-0.035 -0.23,0 -0.48,0.008 -0.729,0.023 -0.236,0.006 -0.473,0.014 -0.703,0.014 -0.096,0 -0.188,0 -0.281,-0.002 -0.715,-0.032 -1.418,-0.157 -2.055,-0.157"
           inkscape:connector-curvature="0" />
      </g>
      <path
         id="path5966"
         d="m 97.113,221.845 v -6.967 h 3.355 v 0.936 h -2.772 v 1.938 h 1.694 v 0.924 h -1.694 v 2.215 h 2.798 v 0.955 h -3.381 z"
         inkscape:connector-curvature="0" />
      <path
         id="path5968"
         d="m 105.837,214.878 v 5.998 h 2.538 v -5.998 h 0.573 v 5.318 c 0,0.643 -0.057,1.078 -0.169,1.307 -0.113,0.229 -0.327,0.342 -0.641,0.342 h -2.066 c -0.316,0 -0.532,-0.115 -0.646,-0.35 -0.114,-0.232 -0.171,-0.666 -0.171,-1.299 v -5.318 h 0.582 z"
         inkscape:connector-curvature="0" />
      <path
         id="path5970"
         d="m 114.136,221.845 v -6.967 h 0.583 v 6.967 h -0.583 z"
         inkscape:connector-curvature="0" />
      <path
         id="path5972"
         d="m 121.251,215.827 v 6.018 h -0.58 v -6.018 h -1.592 v -0.949 h 3.771 v 0.949 h -1.599 z"
         inkscape:connector-curvature="0" />
      <path
         id="path5974"
         d="m 127.204,221.845 v -6.967 h 0.583 v 6.967 h -0.583 z"
         inkscape:connector-curvature="0" />
      <path
         id="path5976"
         d="m 138.344,218.741 v -0.99 h 1.47 v 0.99 h -1.47 z"
         inkscape:connector-curvature="0" />
      <path
         id="path5978"
         d="m 150.371,221.845 v -6.967 h 2.808 c 0.262,0 0.45,0.105 0.565,0.32 0.115,0.213 0.173,0.557 0.173,1.031 v 0.811 c 0,0.373 -0.046,0.652 -0.14,0.836 -0.094,0.186 -0.24,0.303 -0.44,0.35 0.196,0.049 0.345,0.189 0.447,0.42 0.102,0.231 0.153,0.545 0.153,0.945 v 0.891 c 0,0.461 -0.08,0.803 -0.239,1.027 -0.16,0.225 -0.402,0.336 -0.727,0.336 h -2.6 z m 2.95,-4.727 v -0.697 c 0,-0.229 -0.025,-0.387 -0.074,-0.475 -0.049,-0.088 -0.144,-0.133 -0.282,-0.133 h -2.011 v 1.926 h 2.011 c 0.134,0 0.227,-0.047 0.278,-0.139 0.052,-0.093 0.078,-0.253 0.078,-0.482 z m 0.03,2.947 v -0.58 c 0,-0.316 -0.028,-0.535 -0.084,-0.656 -0.056,-0.121 -0.156,-0.182 -0.301,-0.182 h -2.011 v 2.242 h 2.011 c 0.147,0 0.248,-0.061 0.303,-0.178 0.054,-0.118 0.082,-0.333 0.082,-0.646 z"
         inkscape:connector-curvature="0" />
      <path
         id="path5980"
         d="m 158.917,221.845 v -6.967 h 0.583 v 6.967 h -0.583 z"
         inkscape:connector-curvature="0" />
      <path
         id="path5982"
         d="m 164.682,221.845 v -6.967 h 0.583 v 5.998 h 2.637 v 0.969 h -3.22 z"
         inkscape:connector-curvature="0" />
      <path
         id="path5984"
         d="m 172.464,221.845 v -6.967 h 2.808 c 0.262,0 0.45,0.105 0.565,0.32 0.115,0.213 0.173,0.557 0.173,1.031 v 0.811 c 0,0.373 -0.047,0.652 -0.14,0.836 -0.094,0.186 -0.24,0.303 -0.44,0.35 0.195,0.049 0.345,0.189 0.447,0.42 0.102,0.23 0.152,0.545 0.152,0.945 v 0.891 c 0,0.461 -0.079,0.803 -0.238,1.027 -0.159,0.224 -0.401,0.336 -0.727,0.336 h -2.6 z m 2.949,-4.727 v -0.697 c 0,-0.229 -0.024,-0.387 -0.074,-0.475 -0.049,-0.088 -0.143,-0.133 -0.281,-0.133 h -2.011 v 1.926 h 2.011 c 0.134,0 0.227,-0.047 0.278,-0.139 0.052,-0.093 0.077,-0.253 0.077,-0.482 z m 0.03,2.947 v -0.58 c 0,-0.316 -0.028,-0.535 -0.085,-0.656 -0.055,-0.121 -0.156,-0.182 -0.301,-0.182 h -2.011 v 2.242 h 2.011 c 0.146,0 0.248,-0.061 0.303,-0.178 0.055,-0.118 0.083,-0.333 0.083,-0.646 z"
         inkscape:connector-curvature="0" />
      <path
         id="path5986"
         d="m 180.331,221.845 1.902,-6.967 h 0.623 l 1.934,6.967 h -0.639 l -0.445,-1.713 h -2.357 l -0.443,1.713 h -0.575 z m 1.262,-2.604 h 1.875 l -0.938,-3.566 -0.937,3.566 z"
         inkscape:connector-curvature="0" />
      <path
         id="path5988"
         d="m 189.247,216.526 c 0,-0.633 0.057,-1.066 0.17,-1.299 0.113,-0.233 0.328,-0.35 0.646,-0.35 h 2.41 c 0.314,0 0.527,0.115 0.641,0.346 0.114,0.231 0.17,0.664 0.17,1.303 v 3.67 c 0,0.643 -0.057,1.078 -0.17,1.307 -0.113,0.229 -0.326,0.342 -0.641,0.342 h -2.41 c -0.318,0 -0.533,-0.115 -0.646,-0.35 -0.113,-0.232 -0.17,-0.666 -0.17,-1.299 v -3.67 z m 0.58,4.35 h 2.885 v -5.049 h -2.885 v 5.049 z"
         inkscape:connector-curvature="0" />
      <path
         id="path5990"
         d="m 203.802,218.741 v -0.99 h 1.469 v 0.99 h -1.469 z"
         inkscape:connector-curvature="0" />
      <path
         id="path5992"
         d="m 215.829,221.845 v -6.967 h 0.582 v 6.967 h -0.582 z"
         inkscape:connector-curvature="0" />
      <path
         id="path5994"
         d="m 221.593,221.845 v -6.967 h 0.582 v 6.967 h -0.582 z"
         inkscape:connector-curvature="0" />
      <path
         id="path5996"
         d="m 228.708,215.827 v 6.018 h -0.58 v -6.018 h -1.592 v -0.949 h 3.77 v 0.949 h -1.598 z"
         inkscape:connector-curvature="0" />
      <path
         id="path5998"
         d="m 235.243,214.878 v 5.998 h 2.539 v -5.998 h 0.572 v 5.318 c 0,0.643 -0.057,1.078 -0.17,1.307 -0.113,0.229 -0.326,0.342 -0.641,0.342 h -2.066 c -0.316,0 -0.531,-0.115 -0.646,-0.35 -0.113,-0.232 -0.17,-0.666 -0.17,-1.299 v -5.318 h 0.582 z"
         inkscape:connector-curvature="0" />
      <path
         id="path6000"
         d="m 243.544,221.845 v -6.967 h 3.354 v 0.936 h -2.771 v 1.938 h 1.695 v 0.924 h -1.695 v 2.215 h 2.799 v 0.955 h -3.382 z"
         inkscape:connector-curvature="0" />
    </g>
    <g
       id="g6189"
       transform="matrix(0.689709,0,0,0.689709,675.43729,831.52138)"
       style="fill:#000000;fill-opacity:1">
      <g
         id="Fondo"
         style="fill:#000000;fill-opacity:1" />
      <g
         id="Guías"
         style="fill:#000000;fill-opacity:1" />
      <g
         id="Primer_plano"
         style="fill:#000000;fill-opacity:1">
        <g
           id="g6169"
           style="fill:#000000;fill-opacity:1">
          <g
             id="g6171"
             style="fill:#000000;fill-opacity:1">
            <path
               id="path6173"
               d="m 217.663,146.012 c 0,-8.516 6.904,-15.42 15.42,-15.42 1.454,0 2.86,0.201 4.193,0.577 v 29.686 c -1.333,0.376 -2.74,0.577 -4.193,0.577 -8.516,0 -15.42,-6.904 -15.42,-15.42 z m -67.298,-14.941 c 1.224,-0.313 2.506,-0.479 3.828,-0.479 8.516,0 15.42,6.904 15.42,15.42 0,8.516 -6.904,15.42 -15.42,15.42 -1.322,0 -2.604,-0.166 -3.828,-0.479 v -29.882 z m 27.945,14.941 c 0,-8.516 6.903,-15.42 15.419,-15.42 8.517,0 15.42,6.904 15.42,15.42 0,8.516 -6.903,15.42 -15.42,15.42 -8.516,0 -15.419,-6.904 -15.419,-15.42 z"
               inkscape:connector-curvature="0"
               style="fill:#000000;fill-opacity:1" />
            <path
               id="path6175"
               d="m 235.496,123.094 c -11.124,-9.768 -25.708,-15.69 -41.675,-15.69 -15.968,0 -30.552,5.922 -41.675,15.69 8.516,-13.872 23.764,-23.166 41.196,-23.333 l 0.239,-0.002 0.24,-0.001 0.213,0.001 c 17.542,0.074 32.902,9.392 41.462,23.335 z m -26.237,46.701 c -4.771,4.613 -10.184,8.554 -16.087,11.671 -5.606,-3.181 -10.737,-7.117 -15.259,-11.671 h 31.346 z m -41.155,0 c 12.895,16.032 32.555,26.274 54.58,26.274 l 0.234,0 c -6.833,2.938 -14.366,4.566 -22.281,4.566 -21.973,0 -41.004,-12.545 -50.272,-30.84 h 17.739 z m 52.303,20.365 c -6.713,-0.683 -13.147,-2.321 -19.169,-4.778 6.936,-4.116 13.112,-9.401 18.265,-15.587 h 17.773 c -3.933,8.056 -9.745,15.033 -16.869,20.365 z m -0.481,31.479 v 7.648 c 0,0.86 0.144,1.566 0.43,2.119 0.287,0.553 0.648,0.983 1.083,1.291 0.446,0.308 0.935,0.521 1.466,0.637 0.531,0.117 1.041,0.176 1.53,0.176 0.732,0 1.386,-0.085 1.96,-0.255 0.584,-0.169 1.078,-0.435 1.481,-0.796 0.404,-0.361 0.712,-0.812 0.924,-1.354 0.212,-0.553 0.318,-1.211 0.318,-1.976 v -7.489 h -2.406 v 7.632 c 0,0.701 -0.181,1.243 -0.542,1.625 -0.361,0.383 -0.956,0.574 -1.784,0.574 -0.287,0 -0.558,-0.042 -0.812,-0.127 -0.245,-0.096 -0.462,-0.233 -0.653,-0.414 -0.181,-0.191 -0.324,-0.431 -0.431,-0.717 -0.106,-0.297 -0.159,-0.648 -0.159,-1.052 v -7.521 h -2.405 z m -61.781,0 v 7.648 c 0,0.86 0.144,1.566 0.43,2.119 0.287,0.553 0.648,0.983 1.083,1.291 0.446,0.308 0.935,0.521 1.466,0.637 0.531,0.117 1.041,0.176 1.53,0.176 0.733,0 1.386,-0.085 1.96,-0.255 0.584,-0.169 1.078,-0.435 1.481,-0.796 0.404,-0.361 0.712,-0.812 0.924,-1.354 0.212,-0.553 0.318,-1.211 0.318,-1.976 v -7.489 h -2.406 v 7.632 c 0,0.701 -0.181,1.243 -0.542,1.625 -0.361,0.383 -0.956,0.574 -1.785,0.574 -0.287,0 -0.558,-0.042 -0.812,-0.127 -0.245,-0.096 -0.462,-0.233 -0.653,-0.414 -0.181,-0.191 -0.324,-0.431 -0.431,-0.717 -0.106,-0.297 -0.159,-0.648 -0.159,-1.052 v -7.521 h -2.404 z m 13.83,7.393 h 2.772 c 0.776,0 1.402,-0.144 1.88,-0.43 0.488,-0.287 0.866,-0.627 1.131,-1.02 0.266,-0.404 0.441,-0.812 0.525,-1.227 0.096,-0.425 0.144,-0.765 0.144,-1.02 0,-1.147 -0.313,-2.05 -0.94,-2.709 -0.626,-0.658 -1.503,-0.988 -2.629,-0.988 h -5.29 v 11.568 h 2.406 v -4.174 z m 7.473,-7.393 3.887,11.568 h 2.311 l 3.919,-11.568 h -2.501 l -2.518,8.763 -2.517,-8.763 h -2.581 z m 16.04,0 h -1.88 l -3.482,11.568 h 1.88 l 3.482,-11.568 z m 2.259,0 v 11.568 h 8.795 v -1.992 h -6.39 v -3.203 h 5.625 v -1.992 h -5.625 v -2.39 h 6.134 v -1.992 h -8.539 z m 13.033,0 h -2.406 v 11.568 h 2.406 v -5.194 h 4.509 v 5.194 h 2.406 v -11.568 h -2.406 v 4.382 h -4.509 v -4.382 z m -60.415,-3.777 h 86.912 v 19.42 h -86.912 v -19.42 z m 21.61,5.769 h 1.928 c 0.754,0 1.296,0.128 1.625,0.382 0.33,0.245 0.494,0.653 0.494,1.227 0,0.181 -0.021,0.377 -0.064,0.589 -0.032,0.202 -0.111,0.393 -0.239,0.574 -0.128,0.181 -0.313,0.334 -0.558,0.462 -0.234,0.117 -0.547,0.175 -0.94,0.175 h -2.247 v -3.409 z"
               inkscape:connector-curvature="0"
               style="fill:#000000;fill-opacity:1" />
          </g>
          <g
             id="g6177"
             style="fill:#000000;fill-opacity:1">
            <path
               id="path6179"
               d="m 331.072,114.349 h 2.28 v 19.279 h 11.242 v 1.989 h -13.522 v -21.268 z m -16.083,17.178 c 0.34,0.623 0.762,1.128 1.267,1.521 0.528,0.396 1.129,0.688 1.812,0.877 0.686,0.172 1.419,0.257 2.204,0.257 0.92,0 1.708,-0.115 2.368,-0.342 0.666,-0.228 1.198,-0.528 1.607,-0.9 0.412,-0.393 0.708,-0.841 0.894,-1.343 0.207,-0.505 0.311,-1.042 0.311,-1.605 0,-0.793 -0.18,-1.42 -0.524,-1.892 -0.354,-0.484 -0.824,-0.879 -1.407,-1.179 -0.569,-0.322 -1.238,-0.582 -2.004,-0.773 -0.755,-0.194 -1.542,-0.378 -2.356,-0.552 -0.799,-0.195 -1.592,-0.42 -2.372,-0.674 -0.77,-0.257 -1.464,-0.604 -2.08,-1.04 -0.601,-0.44 -1.092,-1.002 -1.471,-1.68 -0.384,-0.708 -0.572,-1.59 -0.572,-2.635 0,-0.74 0.15,-1.46 0.45,-2.158 0.32,-0.699 0.78,-1.32 1.377,-1.857 0.619,-0.539 1.385,-0.966 2.293,-1.281 0.912,-0.317 1.958,-0.475 3.136,-0.475 1.198,0 2.245,0.167 3.14,0.505 0.91,0.336 1.666,0.802 2.266,1.402 0.598,0.578 1.046,1.256 1.345,2.033 0.298,0.775 0.447,1.599 0.447,2.471 l -2.193,0.15 c 0,-0.928 -0.143,-1.595 -0.422,-2.153 -0.262,-0.562 -0.626,-1.02 -1.092,-1.373 -0.469,-0.357 -1.005,-0.62 -1.609,-0.791 -0.608,-0.171 -1.235,-0.256 -1.882,-0.256 -0.996,0 -1.831,0.144 -2.506,0.426 -0.663,0.265 -1.187,0.613 -1.577,1.04 -0.393,0.431 -0.663,0.906 -0.811,1.426 -0.149,0.522 -0.177,1.043 -0.084,1.564 0.112,0.653 0.371,1.166 0.771,1.548 0.413,0.394 0.92,0.724 1.527,0.989 0.615,0.25 1.283,0.46 2.013,0.633 0.759,0.156 1.524,0.33 2.303,0.525 0.783,0.176 1.533,0.391 2.257,0.645 0.751,0.257 1.416,0.604 1.993,1.041 0.583,0.443 1.044,1.015 1.384,1.714 0.362,0.688 0.539,1.546 0.539,2.57 0,1.98 -0.686,3.531 -2.066,4.632 -1.375,1.096 -3.296,1.634 -5.743,1.634 -1.101,0 -2.124,-0.147 -3.072,-0.443 -0.95,-0.277 -1.774,-0.703 -2.471,-1.281 -0.696,-0.597 -1.245,-1.326 -1.642,-2.18 -0.378,-0.877 -0.566,-1.9 -0.566,-3.061 l 2.21,-0.15 c 0.088,1.055 0.288,1.832 0.608,2.471 z m -9.728,-4.481 -3.89,-10.429 -3.89,10.429 h 7.78 z m -5.041,-12.697 h 2.448 l 8.153,21.269 h -2.361 l -2.417,-6.582 h -9.344 l -2.476,6.582 h -2.362 l 8.359,-21.269 z m -25.676,0 h 2.281 v 10.648 l 10.533,-10.648 h 2.666 l -8.432,8.521 9.833,12.748 h -2.796 l -8.678,-11.31 -3.125,3.126 v 8.184 h -2.281 v -21.269 z m -7.514,0 h 2.281 v 21.269 h -2.281 v -21.269 z m 80.234,0 h 14.25 v 1.989 h -11.97 v 7.272 h 10.805 v 1.989 h -10.805 v 8.029 h 12.261 v 1.989 h -14.542 v -21.268 z m 82.966,101.782 c 0.088,1.055 0.288,1.832 0.608,2.471 0.34,0.623 0.762,1.128 1.267,1.521 0.528,0.396 1.129,0.688 1.812,0.877 0.686,0.171 1.419,0.257 2.204,0.257 0.92,0 1.708,-0.116 2.369,-0.342 0.665,-0.228 1.198,-0.528 1.606,-0.9 0.412,-0.393 0.709,-0.841 0.895,-1.342 0.206,-0.505 0.31,-1.042 0.31,-1.605 0,-0.793 -0.179,-1.42 -0.524,-1.892 -0.354,-0.484 -0.823,-0.878 -1.406,-1.18 -0.569,-0.322 -1.238,-0.582 -2.004,-0.773 -0.755,-0.194 -1.542,-0.378 -2.355,-0.552 -0.799,-0.195 -1.592,-0.42 -2.372,-0.674 -0.77,-0.256 -1.465,-0.604 -2.08,-1.04 -0.601,-0.44 -1.092,-1.002 -1.471,-1.68 -0.384,-0.708 -0.572,-1.589 -0.572,-2.635 0,-0.74 0.15,-1.46 0.45,-2.158 0.319,-0.699 0.78,-1.32 1.377,-1.857 0.619,-0.539 1.385,-0.966 2.293,-1.281 0.912,-0.317 1.958,-0.475 3.136,-0.475 1.198,0 2.245,0.167 3.14,0.505 0.91,0.336 1.666,0.802 2.266,1.402 0.598,0.578 1.046,1.255 1.345,2.033 0.298,0.775 0.447,1.6 0.447,2.471 l -2.193,0.15 c 0,-0.929 -0.143,-1.596 -0.421,-2.153 -0.262,-0.562 -0.626,-1.02 -1.092,-1.373 -0.469,-0.357 -1.005,-0.62 -1.61,-0.791 -0.607,-0.171 -1.235,-0.256 -1.881,-0.256 -0.9,0 -1.668,0.115 -2.309,0.341 -0.625,0.228 -1.142,0.53 -1.552,0.903 -0.411,0.354 -0.708,0.764 -0.893,1.225 -0.188,0.469 -0.28,0.936 -0.28,1.4 0,0.774 0.178,1.378 0.521,1.831 0.354,0.447 0.82,0.82 1.405,1.123 0.591,0.287 1.258,0.524 2.007,0.717 l 2.355,0.523 c 0.821,0.176 1.61,0.39 2.373,0.645 0.792,0.237 1.494,0.583 2.11,1.041 0.622,0.441 1.121,1.011 1.5,1.709 0.384,0.708 0.571,1.599 0.571,2.664 0,1.98 -0.685,3.531 -2.066,4.631 -1.375,1.096 -3.296,1.634 -5.743,1.634 -1.101,0 -2.124,-0.147 -3.072,-0.443 -0.95,-0.277 -1.774,-0.704 -2.471,-1.281 -0.696,-0.597 -1.245,-1.326 -1.642,-2.18 -0.379,-0.877 -0.566,-1.899 -0.566,-3.061 l 2.208,-0.15 z M 281.28,201.424 v 1.989 h -11.97 v 7.009 h 10.805 v 1.989 H 269.31 v 8.292 h 12.261 v 1.989 H 267.03 v -21.269 h 14.25 z m 3.358,14.707 c 0.088,1.055 0.288,1.832 0.607,2.471 0.34,0.623 0.763,1.128 1.268,1.521 0.528,0.396 1.129,0.688 1.811,0.877 0.686,0.171 1.419,0.257 2.204,0.257 0.92,0 1.708,-0.116 2.369,-0.342 0.665,-0.228 1.198,-0.528 1.606,-0.9 0.412,-0.393 0.708,-0.841 0.894,-1.342 0.207,-0.505 0.311,-1.042 0.311,-1.605 0,-0.793 -0.18,-1.42 -0.524,-1.892 -0.354,-0.484 -0.824,-0.878 -1.407,-1.18 -0.569,-0.322 -1.238,-0.582 -2.004,-0.773 -0.755,-0.194 -1.542,-0.378 -2.355,-0.552 -0.8,-0.195 -1.592,-0.42 -2.373,-0.674 -0.77,-0.256 -1.464,-0.604 -2.08,-1.04 -0.601,-0.44 -1.092,-1.002 -1.471,-1.68 -0.384,-0.708 -0.572,-1.589 -0.572,-2.635 0,-0.74 0.15,-1.46 0.45,-2.158 0.32,-0.699 0.78,-1.32 1.377,-1.857 0.619,-0.539 1.385,-0.966 2.293,-1.281 0.912,-0.317 1.958,-0.475 3.136,-0.475 1.198,0 2.245,0.167 3.14,0.505 0.911,0.336 1.666,0.802 2.266,1.402 0.599,0.578 1.046,1.255 1.346,2.033 0.298,0.775 0.447,1.6 0.447,2.471 l -2.193,0.15 c 0,-0.929 -0.143,-1.596 -0.422,-2.153 -0.262,-0.562 -0.626,-1.02 -1.092,-1.373 -0.469,-0.357 -1.005,-0.62 -1.609,-0.791 -0.608,-0.171 -1.235,-0.256 -1.882,-0.256 -0.9,0 -1.668,0.115 -2.308,0.341 -0.626,0.228 -1.143,0.53 -1.553,0.903 -0.411,0.354 -0.708,0.764 -0.893,1.225 -0.188,0.469 -0.28,0.936 -0.28,1.4 0,0.774 0.178,1.378 0.522,1.831 0.354,0.447 0.819,0.82 1.405,1.123 0.591,0.287 1.257,0.524 2.007,0.717 l 2.355,0.523 c 0.821,0.176 1.61,0.39 2.372,0.645 0.792,0.237 1.494,0.583 2.111,1.041 0.622,0.441 1.121,1.011 1.5,1.709 0.384,0.708 0.571,1.599 0.571,2.664 0,1.98 -0.686,3.531 -2.066,4.631 -1.375,1.096 -3.296,1.634 -5.744,1.634 -1.101,0 -2.124,-0.147 -3.072,-0.443 -0.95,-0.277 -1.774,-0.704 -2.471,-1.281 -0.696,-0.597 -1.245,-1.326 -1.642,-2.18 -0.378,-0.877 -0.566,-1.899 -0.566,-3.061 l 2.211,-0.15 z m 22.893,6.561 h -2.281 v -19.279 h -6.64 v -1.989 h 15.561 v 1.989 h -6.641 v 19.279 z m 10.156,-21.268 v 12.644 c 0,2.589 0.484,4.418 1.42,5.523 0.932,1.099 2.444,1.666 4.574,1.666 1.115,0 2.045,-0.144 2.801,-0.427 0.774,-0.302 1.391,-0.743 1.858,-1.322 0.47,-0.601 0.811,-1.346 1.021,-2.241 0.21,-0.898 0.316,-1.964 0.316,-3.198 v -12.644 h 2.28 v 13.226 c 0,2.761 -0.686,4.9 -2.079,6.393 -1.377,1.478 -3.453,2.203 -6.197,2.203 -2.763,0 -4.849,-0.746 -6.227,-2.262 -1.373,-1.512 -2.048,-3.63 -2.048,-6.333 v -13.226 h 2.281 z m 17.397,0 h 7.314 c 0.586,0 1.162,0.019 1.729,0.059 0.57,0.02 1.131,0.088 1.681,0.206 0.553,0.1 1.085,0.257 1.599,0.475 0.536,0.218 1.05,0.505 1.544,0.862 0.715,0.516 1.302,1.152 1.758,1.907 0.453,0.729 0.807,1.505 1.063,2.333 0.275,0.806 0.461,1.628 0.56,2.474 0.117,0.823 0.176,1.585 0.176,2.291 0,0.706 -0.049,1.419 -0.147,2.144 -0.078,0.727 -0.216,1.441 -0.412,2.148 -0.197,0.689 -0.462,1.358 -0.797,2.008 -0.317,0.635 -0.722,1.217 -1.217,1.751 -0.495,0.555 -1.04,1.001 -1.638,1.34 -0.573,0.336 -1.187,0.603 -1.838,0.801 -0.628,0.177 -1.291,0.305 -1.978,0.384 -0.684,0.059 -1.379,0.088 -2.083,0.088 h -7.314 v -21.271 z m 2.28,19.279 h 4.597 c 0.887,0 1.713,-0.048 2.485,-0.144 0.777,-0.114 1.566,-0.38 2.369,-0.8 0.679,-0.34 1.234,-0.801 1.667,-1.383 0.438,-0.59 0.78,-1.229 1.028,-1.914 0.268,-0.707 0.45,-1.446 0.545,-2.211 0.116,-0.769 0.174,-1.511 0.174,-2.222 0,-0.751 -0.049,-1.512 -0.145,-2.282 -0.095,-0.785 -0.278,-1.521 -0.544,-2.208 -0.267,-0.704 -0.628,-1.342 -1.084,-1.912 -0.451,-0.583 -1.037,-1.066 -1.758,-1.445 -0.602,-0.32 -1.32,-0.529 -2.161,-0.625 -0.848,-0.096 -1.707,-0.144 -2.575,-0.144 h -4.597 v 17.29 z m 19.737,1.989 h -2.28 v -21.269 h 2.28 v 21.269 z m 11.651,-21.268 8.153,21.269 h -2.361 l -2.417,-6.582 h -9.344 l -2.475,6.582 h -2.363 l 8.36,-21.269 h 2.447 z m -5.187,12.697 h 7.781 l -3.891,-10.429 -3.89,10.429 z m 16.612,-9.456 v 18.027 h -2.281 v -21.269 h 2.474 l 11.942,18.058 v -18.058 h 2.281 v 21.269 h -2.532 l -11.884,-18.027 z m 24.571,18.027 h -2.281 v -19.279 h -6.64 v -1.989 h 15.561 v 1.989 h -6.64 v 19.279 z m 22.125,-21.268 v 1.989 h -11.97 v 7.009 h 10.805 v 1.989 h -10.805 v 8.292 h 12.261 v 1.989 h -14.542 v -21.269 h 14.251 z"
               inkscape:connector-curvature="0"
               style="fill:#000000;fill-opacity:1" />
            <path
               id="path6181"
               d="m 407.753,197.108 h 4.077 c 1.301,0 2.466,-0.058 3.495,-0.175 1.029,-0.136 1.961,-0.427 2.796,-0.874 1.262,-0.68 2.223,-1.738 2.883,-3.175 0.68,-1.456 1.019,-3.271 1.019,-5.446 0,-3.573 -0.932,-6.193 -2.795,-7.864 -0.894,-0.776 -1.942,-1.272 -3.146,-1.485 -1.204,-0.214 -2.621,-0.321 -4.252,-0.321 h -4.077 v 19.34 z m -1.02,0.903 v -21.172 h 4.864 c 1.417,0 2.679,0.068 3.786,0.204 1.126,0.116 2.126,0.398 3,0.844 1.515,0.738 2.67,1.913 3.466,3.524 0.815,1.592 1.224,3.602 1.224,6.029 0,2.427 -0.408,4.446 -1.224,6.057 -0.796,1.612 -1.951,2.767 -3.466,3.466 -0.874,0.427 -1.874,0.709 -3,0.844 -1.106,0.136 -2.369,0.204 -3.786,0.204 h -4.864 z m -29.297,-10.572 c 0,1.592 0.185,3.019 0.554,4.281 0.388,1.242 0.941,2.301 1.66,3.174 0.718,0.874 1.592,1.544 2.622,2.009 1.028,0.447 2.194,0.67 3.494,0.67 1.301,0 2.466,-0.223 3.495,-0.67 1.029,-0.466 1.903,-1.136 2.621,-2.009 0.718,-0.874 1.271,-1.932 1.66,-3.174 0.388,-1.262 0.583,-2.689 0.583,-4.281 0,-1.592 -0.194,-3.01 -0.583,-4.252 -0.389,-1.262 -0.942,-2.33 -1.66,-3.204 -0.718,-0.874 -1.592,-1.544 -2.621,-2.01 -1.029,-0.466 -2.194,-0.699 -3.495,-0.699 -1.3,0 -2.466,0.233 -3.494,0.699 -1.029,0.466 -1.903,1.136 -2.622,2.01 -0.718,0.874 -1.271,1.941 -1.66,3.204 -0.37,1.243 -0.554,2.66 -0.554,4.252 z m -1.019,0 c 0,-1.728 0.213,-3.271 0.641,-4.631 0.427,-1.378 1.039,-2.544 1.834,-3.495 0.815,-0.951 1.796,-1.68 2.942,-2.184 1.165,-0.505 2.475,-0.757 3.931,-0.757 1.457,0 2.757,0.252 3.903,0.757 1.165,0.505 2.146,1.233 2.941,2.184 0.815,0.951 1.437,2.116 1.864,3.495 0.447,1.359 0.67,2.902 0.67,4.631 0,1.728 -0.223,3.281 -0.67,4.66 -0.427,1.359 -1.048,2.514 -1.864,3.465 -0.796,0.932 -1.777,1.65 -2.941,2.155 -1.146,0.504 -2.446,0.757 -3.903,0.757 -1.456,0 -2.767,-0.252 -3.931,-0.757 -1.146,-0.505 -2.126,-1.223 -2.942,-2.155 -0.796,-0.951 -1.407,-2.106 -1.834,-3.465 -0.428,-1.378 -0.641,-2.932 -0.641,-4.66 z m -4.748,-10.601 h 0.99 v 14.999 c 0,2.232 -0.417,3.903 -1.252,5.009 -0.835,1.106 -2.223,1.66 -4.165,1.66 -1.65,0 -2.932,-0.495 -3.844,-1.485 -0.893,-0.99 -1.34,-2.447 -1.34,-4.368 v -0.583 c 0,-0.213 0.01,-0.437 0.029,-0.67 h 0.933 c 0,0.175 -0.01,0.34 -0.029,0.495 v 0.379 c 0,1.805 0.349,3.146 1.048,4.019 0.699,0.874 1.796,1.311 3.292,1.311 0.874,0 1.583,-0.126 2.126,-0.379 0.563,-0.272 1.01,-0.66 1.34,-1.165 0.33,-0.505 0.553,-1.136 0.669,-1.893 0.136,-0.757 0.204,-1.631 0.204,-2.621 v -14.708 z m -24.987,21.173 v -21.172 h 12.901 v 0.961 h -11.911 v 8.737 h 10.892 v 0.903 h -10.892 v 9.611 h 12.203 v 0.96 H 346.682 z M 330.751,185.4 c -0.99,-0.893 -1.485,-2.058 -1.485,-3.494 0,-0.816 0.145,-1.553 0.437,-2.214 0.291,-0.68 0.708,-1.262 1.252,-1.748 0.543,-0.505 1.204,-0.893 1.98,-1.165 0.796,-0.272 1.689,-0.408 2.68,-0.408 0.99,0 1.893,0.156 2.708,0.466 0.835,0.291 1.553,0.718 2.155,1.281 0.602,0.544 1.068,1.194 1.398,1.951 0.33,0.757 0.495,1.592 0.495,2.504 h -0.932 c 0,-0.815 -0.146,-1.553 -0.437,-2.213 -0.292,-0.66 -0.699,-1.223 -1.224,-1.689 -0.505,-0.466 -1.116,-0.825 -1.834,-1.078 -0.719,-0.252 -1.514,-0.379 -2.388,-0.379 -1.689,0 -3.009,0.427 -3.961,1.281 -0.932,0.854 -1.398,1.99 -1.398,3.407 0,1.126 0.437,2.077 1.311,2.854 0.272,0.252 0.583,0.466 0.932,0.64 0.35,0.175 0.748,0.34 1.194,0.496 l 1.311,0.378 1.456,0.408 c 0.505,0.136 0.99,0.282 1.457,0.437 0.466,0.136 0.883,0.272 1.252,0.408 1.282,0.485 2.243,1.087 2.883,1.806 0.641,0.718 0.961,1.738 0.961,3.058 0,0.913 -0.166,1.738 -0.495,2.476 -0.311,0.738 -0.767,1.378 -1.369,1.922 -0.602,0.543 -1.339,0.961 -2.213,1.251 -0.874,0.292 -1.854,0.437 -2.941,0.437 -1.029,0 -1.971,-0.155 -2.825,-0.466 -0.835,-0.311 -1.563,-0.756 -2.185,-1.339 -0.621,-0.602 -1.126,-1.33 -1.515,-2.184 -0.369,-0.874 -0.592,-1.854 -0.669,-2.941 h 0.961 c 0.058,0.932 0.242,1.776 0.553,2.533 0.331,0.738 0.767,1.369 1.311,1.893 0.543,0.524 1.185,0.922 1.923,1.194 0.756,0.272 1.582,0.408 2.475,0.408 0.913,0 1.737,-0.126 2.476,-0.379 0.738,-0.252 1.369,-0.592 1.893,-1.019 0.524,-0.447 0.922,-0.971 1.194,-1.573 0.291,-0.602 0.437,-1.252 0.437,-1.951 0,-0.602 -0.068,-1.126 -0.204,-1.573 -0.136,-0.447 -0.34,-0.835 -0.612,-1.165 -0.271,-0.33 -0.621,-0.621 -1.048,-0.874 -0.407,-0.252 -0.883,-0.485 -1.427,-0.699 -0.35,-0.136 -0.757,-0.272 -1.224,-0.408 -0.465,-0.136 -0.951,-0.272 -1.456,-0.407 l -1.457,-0.408 c -0.485,-0.136 -0.913,-0.272 -1.281,-0.407 -0.505,-0.175 -0.971,-0.359 -1.397,-0.554 -0.428,-0.21 -0.797,-0.462 -1.108,-0.754 z m -20.998,12.611 v -21.172 h 1.02 l 13.251,19.483 v -19.483 h 0.99 v 21.172 h -0.99 l -13.28,-19.454 v 19.454 h -0.991 z m -21.638,-10.572 c 0,1.592 0.185,3.019 0.553,4.281 0.389,1.242 0.942,2.301 1.66,3.174 0.718,0.874 1.592,1.544 2.621,2.009 1.029,0.447 2.194,0.67 3.495,0.67 1.301,0 2.466,-0.223 3.495,-0.67 1.029,-0.466 1.903,-1.136 2.622,-2.009 0.718,-0.874 1.271,-1.932 1.66,-3.174 0.389,-1.262 0.583,-2.689 0.583,-4.281 0,-1.592 -0.194,-3.01 -0.583,-4.252 -0.388,-1.262 -0.941,-2.33 -1.66,-3.204 -0.719,-0.874 -1.592,-1.544 -2.622,-2.01 -1.029,-0.466 -2.194,-0.699 -3.495,-0.699 -1.301,0 -2.466,0.233 -3.495,0.699 -1.029,0.466 -1.903,1.136 -2.621,2.01 -0.718,0.874 -1.271,1.941 -1.66,3.204 -0.368,1.243 -0.553,2.66 -0.553,4.252 z m -1.019,0 c 0,-1.728 0.214,-3.271 0.641,-4.631 0.427,-1.378 1.039,-2.544 1.834,-3.495 0.815,-0.951 1.796,-1.68 2.942,-2.184 1.165,-0.505 2.475,-0.757 3.931,-0.757 1.457,0 2.757,0.252 3.903,0.757 1.165,0.505 2.146,1.233 2.941,2.184 0.815,0.951 1.437,2.116 1.864,3.495 0.446,1.359 0.67,2.902 0.67,4.631 0,1.728 -0.224,3.281 -0.67,4.66 -0.427,1.359 -1.048,2.514 -1.864,3.465 -0.796,0.932 -1.777,1.65 -2.941,2.155 -1.146,0.504 -2.446,0.757 -3.903,0.757 -1.456,0 -2.767,-0.252 -3.931,-0.757 -1.146,-0.505 -2.126,-1.223 -2.942,-2.155 -0.796,-0.951 -1.408,-2.106 -1.834,-3.465 -0.427,-1.378 -0.641,-2.932 -0.641,-4.66 z m -3.087,3.553 c -0.058,1.146 -0.301,2.185 -0.728,3.116 -0.408,0.912 -0.971,1.689 -1.689,2.33 -0.699,0.64 -1.544,1.135 -2.534,1.485 -0.97,0.349 -2.048,0.524 -3.232,0.524 -1.378,0 -2.611,-0.243 -3.699,-0.728 -1.087,-0.505 -2.009,-1.223 -2.767,-2.155 -0.757,-0.951 -1.34,-2.106 -1.747,-3.465 -0.389,-1.359 -0.583,-2.903 -0.583,-4.631 0,-1.766 0.204,-3.339 0.612,-4.718 0.427,-1.379 1.029,-2.534 1.806,-3.466 0.776,-0.951 1.718,-1.67 2.825,-2.155 1.107,-0.505 2.35,-0.757 3.728,-0.757 1.068,0 2.068,0.166 3,0.495 0.932,0.311 1.748,0.757 2.446,1.34 0.699,0.583 1.262,1.281 1.689,2.097 0.446,0.796 0.718,1.689 0.815,2.679 h -0.99 c -0.311,-1.825 -1.087,-3.233 -2.33,-4.223 -1.223,-0.99 -2.825,-1.485 -4.805,-1.485 -1.146,0 -2.204,0.233 -3.174,0.699 -0.952,0.447 -1.767,1.107 -2.447,1.98 -0.679,0.874 -1.213,1.941 -1.602,3.204 -0.369,1.262 -0.553,2.699 -0.553,4.31 0,1.612 0.175,3.048 0.524,4.311 0.369,1.242 0.884,2.291 1.544,3.146 0.68,0.854 1.485,1.514 2.417,1.98 0.932,0.447 1.98,0.67 3.146,0.67 1.068,0 2.039,-0.146 2.913,-0.437 0.893,-0.311 1.66,-0.747 2.3,-1.311 0.641,-0.582 1.146,-1.271 1.515,-2.068 0.369,-0.815 0.583,-1.738 0.641,-2.767 h 0.959 z m 142.994,7.019 v -21.172 h 12.902 v 0.961 h -11.912 v 8.737 h 10.893 v 0.903 h -10.893 v 9.611 h 12.203 v 0.96 h -13.193 z m -14.27,-38.012 8.184,-21.173 h 1.106 l 8.038,21.173 H 429.1 l -2.738,-7.222 h -9.873 l -2.766,7.222 h -0.99 z m 4.106,-8.097 h 9.174 l -4.543,-11.911 -4.631,11.911 z m -149.809,8.097 v -21.173 h 1.02 v 11.911 l 11.737,-11.911 h 1.252 l -8.358,8.475 9.64,12.698 h -1.194 L 272.04,148 l -3.99,4.048 v 7.951 h -1.02 z m 16.251,-10.572 c 0,-1.728 0.214,-3.272 0.641,-4.631 0.427,-1.378 1.039,-2.543 1.834,-3.495 0.815,-0.951 1.796,-1.679 2.942,-2.184 1.165,-0.505 2.476,-0.757 3.932,-0.757 1.457,0 2.757,0.252 3.903,0.757 1.165,0.505 2.146,1.233 2.941,2.184 0.815,0.951 1.437,2.116 1.864,3.495 0.446,1.359 0.67,2.903 0.67,4.631 0,1.728 -0.224,3.281 -0.67,4.66 -0.427,1.359 -1.048,2.514 -1.864,3.465 -0.796,0.932 -1.777,1.65 -2.941,2.155 -1.146,0.504 -2.446,0.757 -3.903,0.757 -1.456,0 -2.767,-0.252 -3.932,-0.757 -1.146,-0.505 -2.126,-1.223 -2.942,-2.155 -0.796,-0.951 -1.407,-2.106 -1.834,-3.465 -0.427,-1.379 -0.641,-2.932 -0.641,-4.66 z m 1.019,0 c 0,1.592 0.185,3.019 0.553,4.281 0.388,1.242 0.942,2.301 1.66,3.174 0.719,0.874 1.592,1.544 2.622,2.01 1.029,0.447 2.194,0.67 3.495,0.67 1.301,0 2.466,-0.223 3.495,-0.67 1.029,-0.466 1.903,-1.136 2.622,-2.01 0.718,-0.874 1.271,-1.932 1.66,-3.174 0.389,-1.262 0.583,-2.689 0.583,-4.281 0,-1.592 -0.194,-3.01 -0.583,-4.252 -0.388,-1.262 -0.942,-2.33 -1.66,-3.204 -0.719,-0.874 -1.592,-1.544 -2.622,-2.01 -1.029,-0.466 -2.194,-0.699 -3.495,-0.699 -1.301,0 -2.466,0.233 -3.495,0.699 -1.029,0.466 -1.903,1.136 -2.622,2.01 -0.718,0.874 -1.271,1.941 -1.66,3.204 -0.368,1.243 -0.553,2.66 -0.553,4.252 z m 21.638,10.572 v -21.173 h 1.02 l 13.251,19.483 v -19.483 h 0.99 v 21.173 h -0.99 l -13.28,-19.455 v 19.455 h -0.991 z m 24.726,0 v -20.241 h -6.699 v -0.932 h 14.271 v 0.932 h -6.582 v 20.241 h -0.99 z m 11.271,-12.611 c -0.99,-0.893 -1.485,-2.058 -1.485,-3.495 0,-0.815 0.146,-1.553 0.437,-2.213 0.291,-0.68 0.709,-1.262 1.252,-1.748 0.543,-0.505 1.204,-0.893 1.98,-1.165 0.796,-0.272 1.689,-0.408 2.68,-0.408 0.991,0 1.893,0.156 2.708,0.466 0.834,0.291 1.553,0.718 2.155,1.281 0.603,0.544 1.068,1.194 1.398,1.951 0.33,0.757 0.495,1.592 0.495,2.505 h -0.932 c 0,-0.815 -0.146,-1.553 -0.437,-2.213 -0.292,-0.66 -0.699,-1.223 -1.223,-1.689 -0.505,-0.466 -1.116,-0.825 -1.834,-1.078 -0.719,-0.252 -1.514,-0.379 -2.388,-0.379 -1.689,0 -3.01,0.427 -3.961,1.281 -0.932,0.855 -1.398,1.991 -1.398,3.408 0,1.126 0.437,2.078 1.311,2.854 0.272,0.252 0.583,0.466 0.932,0.64 0.35,0.175 0.747,0.34 1.194,0.496 l 1.311,0.378 1.456,0.408 c 0.505,0.136 0.99,0.282 1.457,0.437 0.466,0.136 0.883,0.272 1.252,0.408 1.282,0.485 2.243,1.087 2.883,1.805 0.641,0.718 0.961,1.738 0.961,3.058 0,0.913 -0.165,1.738 -0.495,2.476 -0.311,0.738 -0.767,1.379 -1.369,1.922 -0.602,0.544 -1.339,0.961 -2.213,1.252 -0.874,0.291 -1.855,0.437 -2.942,0.437 -1.029,0 -1.971,-0.155 -2.825,-0.466 -0.835,-0.311 -1.563,-0.757 -2.185,-1.34 -0.622,-0.602 -1.126,-1.33 -1.515,-2.184 -0.369,-0.874 -0.592,-1.854 -0.669,-2.941 h 0.961 c 0.058,0.932 0.243,1.776 0.553,2.533 0.33,0.738 0.767,1.369 1.311,1.893 0.543,0.524 1.184,0.922 1.922,1.194 0.757,0.272 1.582,0.407 2.475,0.407 0.913,0 1.738,-0.126 2.476,-0.379 0.737,-0.252 1.369,-0.592 1.893,-1.019 0.524,-0.447 0.922,-0.971 1.194,-1.573 0.292,-0.602 0.438,-1.252 0.438,-1.951 0,-0.602 -0.068,-1.126 -0.204,-1.573 -0.136,-0.447 -0.34,-0.835 -0.612,-1.165 -0.271,-0.33 -0.621,-0.621 -1.048,-0.874 -0.408,-0.252 -0.883,-0.485 -1.427,-0.698 -0.35,-0.136 -0.757,-0.272 -1.224,-0.408 -0.466,-0.136 -0.951,-0.272 -1.456,-0.407 l -1.457,-0.408 c -0.485,-0.136 -0.913,-0.272 -1.282,-0.407 -0.505,-0.175 -0.97,-0.359 -1.397,-0.554 -0.428,-0.211 -0.797,-0.463 -1.107,-0.755 z m 15.93,12.611 v -21.173 h 12.901 v 0.961 h -11.912 v 8.737 h 10.893 v 0.903 h -10.893 v 9.611 h 12.203 v 0.961 h -13.192 z m 16.833,0 v -21.173 h 0.99 v 21.173 h -0.99 z m 5.971,0 v -21.173 h 0.99 v 20.212 h 11.212 v 0.961 h -12.202 z m 14.765,-21.173 h 0.99 v 13.31 c 0,2.465 0.562,4.32 1.689,5.562 1.126,1.242 2.776,1.864 4.951,1.864 2.155,0 3.796,-0.631 4.922,-1.893 1.146,-1.262 1.718,-3.107 1.718,-5.533 v -13.31 h 0.991 v 13.775 c 0,1.243 -0.175,2.349 -0.524,3.32 -0.35,0.971 -0.854,1.796 -1.515,2.476 -0.66,0.66 -1.466,1.175 -2.417,1.543 -0.932,0.349 -1.991,0.524 -3.175,0.524 -2.407,0 -4.281,-0.679 -5.621,-2.038 -1.34,-1.359 -2.009,-3.301 -2.009,-5.825 v -13.775 z"
               inkscape:connector-curvature="0"
               style="fill:#000000;fill-opacity:1" />
          </g>
        </g>
      </g>
    </g>
    <text
       xml:space="preserve"
       style="font-size:68.99994658999997910px;font-style:normal;font-weight:normal;line-height:125%;letter-spacing:0px;word-spacing:0px;fill:#ffffff;fill-opacity:1;stroke:none;display:inline;font-family:Sans"
       x="139.90402"
       y="-128.67252"
       id="text3985-6-7"
       sodipodi:linespacing="125%"
       transform="scale(1.219701,0.81987307)"
       inkscape:export-filename="/home/eine/freejaus-hub/design/plantillas/freejaus_a4_vcharla.png"
       inkscape:export-xdpi="300"
       inkscape:export-ydpi="300"><tspan
         sodipodi:role="line"
         id="tspan3987-7-3"
         x="139.90402"
         y="-128.67252"
         style="font-size:45px;font-style:normal;font-variant:normal;font-weight:bold;font-stretch:normal;letter-spacing:0px;fill:#ffffff;fill-opacity:1;font-family:Impacted;-inkscape-font-specification:Impacted Bold">Jueves, 27</tspan></text>
    <text
       xml:space="preserve"
       style="font-size:68.99994659px;font-style:normal;font-weight:normal;line-height:125%;letter-spacing:0px;word-spacing:0px;fill:#ffffff;fill-opacity:1;stroke:none;display:inline;font-family:Sans"
       x="48.87632"
       y="-212.93265"
       id="text3985-6-7-2"
       sodipodi:linespacing="125%"
       transform="scale(1.219701,0.81987307)"
       inkscape:export-filename="/home/eine/freejaus-hub/design/plantillas/freejaus_a4_vcharla.png"
       inkscape:export-xdpi="300"
       inkscape:export-ydpi="300"><tspan
         sodipodi:role="line"
         x="48.87632"
         y="-212.93265"
         style="font-size:60px;font-style:normal;font-variant:normal;font-weight:bold;font-stretch:normal;letter-spacing:0px;fill:#ffffff;fill-opacity:1;font-family:Impacted;-inkscape-font-specification:Impacted Bold"
         id="tspan6251">Noviembre en la EUITI de Bilbao</tspan></text>
    <flowRoot
       xml:space="preserve"
       id="flowRoot6243"
       style="fill:black;stroke:none;stroke-opacity:1;stroke-width:1px;stroke-linejoin:miter;stroke-linecap:butt;fill-opacity:1;font-family:Sans;font-style:normal;font-weight:normal;font-size:40px;line-height:125%;letter-spacing:0px;word-spacing:0px"><flowRegion
         id="flowRegion6245"><rect
           id="rect6247"
           width="177.14285"
           height="140"
           x="1220"
           y="148.18896" /></flowRegion><flowPara
         id="flowPara6249"></flowPara></flowRoot>    <path
       d="m 1022.1899,744.04212 -478.34645,0 0,-804.071994 478.34645,0 0,804.071994 z"
       style="fill:#ffffff;fill-opacity:1;fill-rule:nonzero;stroke:none;display:inline"
       id="path3051-2-2-8"
       inkscape:connector-curvature="0"
       inkscape:export-filename="/home/eine/freejaus-hub/design/plantillas/freejaus_a4_vseminario.png"
       inkscape:export-xdpi="300"
       inkscape:export-ydpi="300" />
    <text
       inkscape:export-ydpi="300"
       inkscape:export-xdpi="300"
       inkscape:export-filename="/home/eine/freejaus-hub/design/plantillas/freejaus_a4_vcharla.png"
       transform="scale(1.219701,0.81987307)"
       sodipodi:linespacing="125%"
       id="text6271"
       y="-128.67252"
       x="538.36127"
       style="font-size:68.99994658999997910px;font-style:normal;font-weight:normal;line-height:125%;letter-spacing:0px;word-spacing:0px;fill:#ffffff;fill-opacity:1;stroke:none;display:inline;font-family:Sans"
       xml:space="preserve"><tspan
         style="font-size:45px;font-style:normal;font-variant:normal;font-weight:bold;font-stretch:normal;letter-spacing:0px;fill:#ffffff;fill-opacity:1;font-family:Impacted;-inkscape-font-specification:Impacted Bold"
         y="-128.67252"
         x="538.36127"
         id="tspan6273"
         sodipodi:role="line">Viernes, 28</tspan></text>
    <text
       xml:space="preserve"
       style="font-size:40px;font-style:normal;font-weight:normal;text-align:start;line-height:125%;letter-spacing:0px;word-spacing:0px;text-anchor:start;fill:#000000;fill-opacity:1;stroke:none;font-family:Sans"
       x="46.201729"
       y="0.93359375"
       id="text6296"
       sodipodi:linespacing="125%"><tspan
         sodipodi:role="line"
         id="tspan6298"
         x="46.201729"
         y="0.93359375"
         style="font-size:35px;font-style:normal;font-variant:normal;font-weight:bold;font-stretch:normal;text-align:start;text-anchor:start;font-family:Distro;-inkscape-font-specification:Distro Bold">Demystifying SSL/TLS security:</tspan><tspan
         sodipodi:role="line"
         x="46.201729"
         y="44.683594"
         style="font-size:35px;font-style:normal;font-variant:normal;font-weight:bold;font-stretch:normal;text-align:start;text-anchor:start;font-family:Distro;-inkscape-font-specification:Distro Bold"
         id="tspan6300"><tspan
           style="font-size:35px;font-style:italic;-inkscape-font-specification:Distro Bold Italic"
           id="tspan6316">     </tspan></tspan><tspan
         sodipodi:role="line"
         x="46.201729"
         y="88.433594"
         style="font-size:35px;font-style:normal;font-variant:normal;font-weight:bold;font-stretch:normal;text-align:start;text-anchor:start;font-family:Distro;-inkscape-font-specification:Distro Bold"
         id="tspan6360"><tspan
           style="font-size:35px;font-style:italic;-inkscape-font-specification:Distro Bold Italic"
           id="tspan6362">        Pa</tspan><tspan
           style="font-size:35px;font-style:italic;text-align:start;text-anchor:start;-inkscape-font-specification:Distro Bold Italic"
           id="tspan6312">st, present and future</tspan></tspan><tspan
         sodipodi:role="line"
         x="46.201729"
         y="132.18359"
         style="font-size:35px;font-style:italic;font-variant:normal;font-weight:bold;font-stretch:normal;text-align:start;text-anchor:start;font-family:Distro;-inkscape-font-specification:Distro Bold Italic"
         id="tspan6310">                of secure connections</tspan></text>
    <flowRoot
       xml:space="preserve"
       id="flowRoot6302"
       style="fill:black;stroke:none;stroke-opacity:1;stroke-width:1px;stroke-linejoin:miter;stroke-linecap:butt;fill-opacity:1;font-family:Sans;font-style:normal;font-weight:normal;font-size:40px;line-height:125%;letter-spacing:0px;word-spacing:0px"><flowRegion
         id="flowRegion6304"><rect
           id="rect6306"
           width="111.42857"
           height="157.14285"
           x="45.714287"
           y="545.33185" /></flowRegion><flowPara
         id="flowPara6308"></flowPara></flowRoot>    <text
       xml:space="preserve"
       style="font-size:40px;font-style:normal;font-weight:normal;text-align:start;line-height:125%;letter-spacing:0px;word-spacing:0px;text-anchor:start;fill:#000000;fill-opacity:1;stroke:none;font-family:Sans"
       x="72.247215"
       y="292.29147"
       id="text6296-5"
       sodipodi:linespacing="125%"><tspan
         sodipodi:role="line"
         x="72.247215"
         y="292.29147"
         style="font-size:38px;font-style:normal;font-variant:normal;font-weight:bold;font-stretch:normal;text-align:start;text-anchor:start;font-family:Distro;-inkscape-font-specification:Distro Bold"
         id="tspan6310-9">Exploiting relevant</tspan><tspan
         sodipodi:role="line"
         x="72.247215"
         y="339.79147"
         style="font-size:38px;font-style:normal;font-variant:normal;font-weight:bold;font-stretch:normal;text-align:start;text-anchor:start;font-family:Distro;-inkscape-font-specification:Distro Bold"
         id="tspan6365">     enterprises software</tspan><tspan
         sodipodi:role="line"
         x="72.247215"
         y="387.29147"
         style="font-size:38px;font-style:normal;font-variant:normal;font-weight:bold;font-stretch:normal;text-align:start;text-anchor:start;font-family:Distro;-inkscape-font-specification:Distro Bold"
         id="tspan6367">              for fun and profit</tspan></text>
    <text
       xml:space="preserve"
       style="font-size:40px;font-style:normal;font-weight:normal;text-align:start;line-height:125%;letter-spacing:0px;word-spacing:0px;text-anchor:start;fill:#000000;fill-opacity:1;stroke:none;font-family:Sans"
       x="302.77341"
       y="828.47406"
       id="text6296-5-5"
       sodipodi:linespacing="125%"><tspan
         sodipodi:role="line"
         x="302.77341"
         y="828.47406"
         style="font-size:25px;font-style:normal;font-variant:normal;font-weight:bold;font-stretch:normal;text-align:start;text-anchor:start;font-family:Distro;-inkscape-font-specification:Distro Bold"
         id="tspan6367-3">news.freejaus.com/tag/partyhard14</tspan></text>
    <rect
       style="fill:#000000;fill-opacity:1;stroke:#000000;stroke-width:0;stroke-miterlimit:4;stroke-opacity:1;stroke-dasharray:none"
       id="rect6401"
       width="197.14287"
       height="171.42857"
       x="79.999985"
       y="862.93365" />
    <text
       xml:space="preserve"
       style="font-size:68.99994659px;font-style:normal;font-weight:normal;line-height:125%;letter-spacing:0px;word-spacing:0px;fill:#ffffff;fill-opacity:1;stroke:none;display:inline;font-family:Sans"
       x="27.278164"
       y="1012.2677"
       id="text3985-6-7-1"
       sodipodi:linespacing="125%"
       transform="scale(1.219701,0.81987307)"
       inkscape:export-filename="/home/eine/freejaus-hub/design/plantillas/freejaus_a4_vcharla.png"
       inkscape:export-xdpi="300"
       inkscape:export-ydpi="300"><tspan
         sodipodi:role="line"
         id="tspan3987-7-3-3"
         x="27.278164"
         y="1012.2677"
         style="font-size:30px;font-style:normal;font-variant:normal;font-weight:bold;font-stretch:normal;letter-spacing:0px;fill:#000000;fill-opacity:1;font-family:Impacted;-inkscape-font-specification:Impacted Bold">Más información:</tspan></text>
    <text
       xml:space="preserve"
       style="font-size:40px;font-style:normal;font-weight:normal;line-height:125%;letter-spacing:0px;word-spacing:0px;fill:#000000;fill-opacity:1;stroke:none;font-family:Sans"
       x="142.85715"
       y="957.2193"
       id="text6426"
       sodipodi:linespacing="125%"><tspan
         sodipodi:role="line"
         id="tspan6428"
         x="142.85715"
         y="957.2193"
         style="fill:#ffffff;fill-opacity:1">QR</tspan></text>
    <text
       sodipodi:linespacing="125%"
       id="text6430"
       y="4.8629022"
       x="550.81866"
       style="font-size:40px;font-style:normal;font-weight:normal;text-align:start;line-height:125%;letter-spacing:0px;word-spacing:0px;text-anchor:start;fill:#000000;fill-opacity:1;stroke:none;font-family:Sans"
       xml:space="preserve"><tspan
         id="tspan6436"
         style="font-size:38px;font-style:normal;font-variant:normal;font-weight:bold;font-stretch:normal;text-align:start;text-anchor:start;font-family:Distro;-inkscape-font-specification:Distro Bold"
         y="4.8629022"
         x="550.81866"
         sodipodi:role="line">Integración de Arduino</tspan><tspan
         style="font-size:38px;font-style:normal;font-variant:normal;font-weight:bold;font-stretch:normal;text-align:start;text-anchor:start;font-family:Distro;-inkscape-font-specification:Distro Bold"
         y="52.362904"
         x="550.81866"
         sodipodi:role="line"
         id="tspan6445"> y Raspberry Pi</tspan><tspan
         style="font-size:38px;font-style:normal;font-variant:normal;font-weight:bold;font-stretch:normal;text-align:start;text-anchor:start;font-family:Distro;-inkscape-font-specification:Distro Bold"
         y="99.8629"
         x="550.81866"
         sodipodi:role="line"
         id="tspan6443">principios de la comunicación</tspan><tspan
         style="font-size:38px;font-style:normal;font-variant:normal;font-weight:bold;font-stretch:normal;text-align:start;text-anchor:start;font-family:Distro;-inkscape-font-specification:Distro Bold"
         y="147.3629"
         x="550.81866"
         sodipodi:role="line"
         id="tspan6447">y posibles proyectos)</tspan></text>
    <text
       sodipodi:linespacing="125%"
       id="text6430-3"
       y="351.46716"
       x="616.23999"
       style="font-size:40px;font-style:normal;font-weight:normal;text-align:start;line-height:125%;letter-spacing:0px;word-spacing:0px;text-anchor:start;fill:#000000;fill-opacity:1;stroke:none;font-family:Sans"
       xml:space="preserve"><tspan
         style="font-size:38px;font-style:normal;font-variant:normal;font-weight:bold;font-stretch:normal;text-align:start;text-anchor:start;font-family:Distro;-inkscape-font-specification:Distro Bold"
         y="351.46716"
         x="616.23999"
         sodipodi:role="line"
         id="tspan6447-4">Taller Raspberry Pi</tspan></text>
    <text
       sodipodi:linespacing="125%"
       id="text6430-3-4"
       y="630.73621"
       x="549.51178"
       style="font-size:40px;font-style:normal;font-weight:normal;text-align:start;line-height:125%;letter-spacing:0px;word-spacing:0px;text-anchor:start;fill:#000000;fill-opacity:1;stroke:none;font-family:Sans"
       xml:space="preserve"><tspan
         style="font-size:38px;font-style:normal;font-variant:normal;font-weight:bold;font-stretch:normal;text-align:start;text-anchor:start;font-family:Distro;-inkscape-font-specification:Distro Bold"
         y="630.73621"
         x="549.51178"
         sodipodi:role="line"
         id="tspan6447-4-7">A partir de las 20:00, basque</tspan><tspan
         style="font-size:38px;font-style:normal;font-variant:normal;font-weight:bold;font-stretch:normal;text-align:start;text-anchor:start;font-family:Distro;-inkscape-font-specification:Distro Bold"
         y="678.23621"
         x="549.51178"
         sodipodi:role="line"
         id="tspan6509">networking en las calles aledañas</tspan><tspan
         style="font-size:38px;font-style:normal;font-variant:normal;font-weight:bold;font-stretch:normal;text-align:start;text-anchor:start;font-family:Distro;-inkscape-font-specification:Distro Bold"
         y="725.73621"
         x="549.51178"
         sodipodi:role="line"
         id="tspan6511">a la Escuela</tspan></text>
  </g>
</svg>
