<?xml version="1.0" encoding="utf-8"?>
<!-- Generator: Adobe Illustrator 15.0.0, SVG Export Plug-In . SVG Version: 6.00 Build 0)  -->
<!DOCTYPE svg PUBLIC "-//W3C//DTD SVG 1.1//EN" "http://www.w3.org/Graphics/SVG/1.1/DTD/svg11.dtd">
<svg version="1.1" xmlns="http://www.w3.org/2000/svg" xmlns:xlink="http://www.w3.org/1999/xlink" x="0px" y="0px" width="595px"
	 height="842px" viewBox="0 0 595 842" enable-background="new 0 0 595 842" xml:space="preserve">
<g id="Fondo">
</g>
<g id="Guías">
</g>
<g id="Primer_plano">
	<g>
		<g>
			<path fill="#F17D00" d="M217.663,146.012c0-8.516,6.904-15.42,15.42-15.42c1.454,0,2.86,0.201,4.193,0.577v29.686
				c-1.333,0.376-2.74,0.577-4.193,0.577C224.567,161.432,217.663,154.528,217.663,146.012z M150.365,131.071
				c1.224-0.313,2.506-0.479,3.828-0.479c8.516,0,15.42,6.904,15.42,15.42s-6.904,15.42-15.42,15.42
				c-1.322,0-2.604-0.166-3.828-0.479V131.071z M178.31,146.012c0-8.516,6.903-15.42,15.419-15.42c8.517,0,15.42,6.904,15.42,15.42
				s-6.903,15.42-15.42,15.42C185.213,161.432,178.31,154.528,178.31,146.012z"/>
			<path d="M235.496,123.094c-11.124-9.768-25.708-15.69-41.675-15.69c-15.968,0-30.552,5.922-41.675,15.69
				c8.516-13.872,23.764-23.166,41.196-23.333l0.239-0.002l0.24-0.001l0.213,0.001C211.576,99.833,226.936,109.151,235.496,123.094z
				 M209.259,169.795c-4.771,4.613-10.184,8.554-16.087,11.671c-5.606-3.181-10.737-7.117-15.259-11.671H209.259z M168.104,169.795
				c12.895,16.032,32.555,26.274,54.58,26.274l0.234,0c-6.833,2.938-14.366,4.566-22.281,4.566
				c-21.973,0-41.004-12.545-50.272-30.84H168.104z M220.407,190.16c-6.713-0.683-13.147-2.321-19.169-4.778
				c6.936-4.116,13.112-9.401,18.265-15.587h17.773C233.343,177.851,227.531,184.828,220.407,190.16z M219.926,221.639v7.648
				c0,0.86,0.144,1.566,0.43,2.119c0.287,0.553,0.648,0.983,1.083,1.291c0.446,0.308,0.935,0.521,1.466,0.637
				c0.531,0.117,1.041,0.176,1.53,0.176c0.732,0,1.386-0.085,1.96-0.255c0.584-0.169,1.078-0.435,1.481-0.796
				c0.404-0.361,0.712-0.812,0.924-1.354c0.212-0.553,0.318-1.211,0.318-1.976v-7.489h-2.406v7.632c0,0.701-0.181,1.243-0.542,1.625
				c-0.361,0.383-0.956,0.574-1.784,0.574c-0.287,0-0.558-0.042-0.812-0.127c-0.245-0.096-0.462-0.233-0.653-0.414
				c-0.181-0.191-0.324-0.431-0.431-0.717c-0.106-0.297-0.159-0.648-0.159-1.052v-7.521H219.926z M158.145,221.639v7.648
				c0,0.86,0.144,1.566,0.43,2.119c0.287,0.553,0.648,0.983,1.083,1.291c0.446,0.308,0.935,0.521,1.466,0.637
				c0.531,0.117,1.041,0.176,1.53,0.176c0.733,0,1.386-0.085,1.96-0.255c0.584-0.169,1.078-0.435,1.481-0.796
				c0.404-0.361,0.712-0.812,0.924-1.354c0.212-0.553,0.318-1.211,0.318-1.976v-7.489h-2.406v7.632c0,0.701-0.181,1.243-0.542,1.625
				c-0.361,0.383-0.956,0.574-1.785,0.574c-0.287,0-0.558-0.042-0.812-0.127c-0.245-0.096-0.462-0.233-0.653-0.414
				c-0.181-0.191-0.324-0.431-0.431-0.717c-0.106-0.297-0.159-0.648-0.159-1.052v-7.521H158.145z M171.975,229.032h2.772
				c0.776,0,1.402-0.144,1.88-0.43c0.488-0.287,0.866-0.627,1.131-1.02c0.266-0.404,0.441-0.812,0.525-1.227
				c0.096-0.425,0.144-0.765,0.144-1.02c0-1.147-0.313-2.05-0.94-2.709c-0.626-0.658-1.503-0.988-2.629-0.988h-5.29v11.568h2.406
				V229.032z M179.448,221.639l3.887,11.568h2.311l3.919-11.568h-2.501l-2.518,8.763l-2.517-8.763H179.448z M195.488,221.639h-1.88
				l-3.482,11.568h1.88L195.488,221.639z M197.747,221.639v11.568h8.795v-1.992h-6.39v-3.203h5.625v-1.992h-5.625v-2.39h6.134
				v-1.992H197.747z M210.78,221.639h-2.406v11.568h2.406v-5.194h4.509v5.194h2.406v-11.568h-2.406v4.382h-4.509V221.639z
				 M150.365,217.862h86.912v19.42h-86.912V217.862z M171.975,223.631h1.928c0.754,0,1.296,0.128,1.625,0.382
				c0.33,0.245,0.494,0.653,0.494,1.227c0,0.181-0.021,0.377-0.064,0.589c-0.032,0.202-0.111,0.393-0.239,0.574
				s-0.313,0.334-0.558,0.462c-0.234,0.117-0.547,0.175-0.94,0.175h-2.247V223.631z"/>
		</g>
		<g>
			<path fill="#F17D00" d="M331.072,114.349h2.28v19.279h11.242v1.989h-13.522V114.349z M314.989,131.527
				c0.34,0.623,0.762,1.128,1.267,1.521c0.528,0.396,1.129,0.688,1.812,0.877c0.686,0.172,1.419,0.257,2.204,0.257
				c0.92,0,1.708-0.115,2.368-0.342c0.666-0.228,1.198-0.528,1.607-0.9c0.412-0.393,0.708-0.841,0.894-1.343
				c0.207-0.505,0.311-1.042,0.311-1.605c0-0.793-0.18-1.42-0.524-1.892c-0.354-0.484-0.824-0.879-1.407-1.179
				c-0.569-0.322-1.238-0.582-2.004-0.773c-0.755-0.194-1.542-0.378-2.356-0.552c-0.799-0.195-1.592-0.42-2.372-0.674
				c-0.77-0.257-1.464-0.604-2.08-1.04c-0.601-0.44-1.092-1.002-1.471-1.68c-0.384-0.708-0.572-1.59-0.572-2.635
				c0-0.74,0.15-1.46,0.45-2.158c0.32-0.699,0.78-1.32,1.377-1.857c0.619-0.539,1.385-0.966,2.293-1.281
				c0.912-0.317,1.958-0.475,3.136-0.475c1.198,0,2.245,0.167,3.14,0.505c0.91,0.336,1.666,0.802,2.266,1.402
				c0.598,0.578,1.046,1.256,1.345,2.033c0.298,0.775,0.447,1.599,0.447,2.471l-2.193,0.15c0-0.928-0.143-1.595-0.422-2.153
				c-0.262-0.562-0.626-1.02-1.092-1.373c-0.469-0.357-1.005-0.62-1.609-0.791c-0.608-0.171-1.235-0.256-1.882-0.256
				c-0.996,0-1.831,0.144-2.506,0.426c-0.663,0.265-1.187,0.613-1.577,1.04c-0.393,0.431-0.663,0.906-0.811,1.426
				c-0.149,0.522-0.177,1.043-0.084,1.564c0.112,0.653,0.371,1.166,0.771,1.548c0.413,0.394,0.92,0.724,1.527,0.989
				c0.615,0.25,1.283,0.46,2.013,0.633c0.759,0.156,1.524,0.33,2.303,0.525c0.783,0.176,1.533,0.391,2.257,0.645
				c0.751,0.257,1.416,0.604,1.993,1.041c0.583,0.443,1.044,1.015,1.384,1.714c0.362,0.688,0.539,1.546,0.539,2.57
				c0,1.98-0.686,3.531-2.066,4.632c-1.375,1.096-3.296,1.634-5.743,1.634c-1.101,0-2.124-0.147-3.072-0.443
				c-0.95-0.277-1.774-0.703-2.471-1.281c-0.696-0.597-1.245-1.326-1.642-2.18c-0.378-0.877-0.566-1.9-0.566-3.061l2.21-0.15
				C314.469,130.111,314.669,130.888,314.989,131.527z M305.261,127.046l-3.89-10.429l-3.89,10.429H305.261z M300.22,114.349h2.448
				l8.153,21.269h-2.361l-2.417-6.582h-9.344l-2.476,6.582h-2.362L300.22,114.349z M274.544,114.349h2.281v10.648l10.533-10.648
				h2.666l-8.432,8.521l9.833,12.748h-2.796l-8.678-11.31l-3.125,3.126v8.184h-2.281V114.349z M267.03,114.349h2.281v21.269h-2.281
				V114.349z M347.264,114.349h14.25v1.989h-11.97v7.272h10.805v1.989h-10.805v8.029h12.261v1.989h-14.542V114.349z M430.23,216.131
				c0.088,1.055,0.288,1.832,0.608,2.471c0.34,0.623,0.762,1.128,1.267,1.521c0.528,0.396,1.129,0.688,1.812,0.877
				c0.686,0.171,1.419,0.257,2.204,0.257c0.92,0,1.708-0.116,2.369-0.342c0.665-0.228,1.198-0.528,1.606-0.9
				c0.412-0.393,0.709-0.841,0.895-1.342c0.206-0.505,0.31-1.042,0.31-1.605c0-0.793-0.179-1.42-0.524-1.892
				c-0.354-0.484-0.823-0.878-1.406-1.18c-0.569-0.322-1.238-0.582-2.004-0.773c-0.755-0.194-1.542-0.378-2.355-0.552
				c-0.799-0.195-1.592-0.42-2.372-0.674c-0.77-0.256-1.465-0.604-2.08-1.04c-0.601-0.44-1.092-1.002-1.471-1.68
				c-0.384-0.708-0.572-1.589-0.572-2.635c0-0.74,0.15-1.46,0.45-2.158c0.319-0.699,0.78-1.32,1.377-1.857
				c0.619-0.539,1.385-0.966,2.293-1.281c0.912-0.317,1.958-0.475,3.136-0.475c1.198,0,2.245,0.167,3.14,0.505
				c0.91,0.336,1.666,0.802,2.266,1.402c0.598,0.578,1.046,1.255,1.345,2.033c0.298,0.775,0.447,1.6,0.447,2.471l-2.193,0.15
				c0-0.929-0.143-1.596-0.421-2.153c-0.262-0.562-0.626-1.02-1.092-1.373c-0.469-0.357-1.005-0.62-1.61-0.791
				c-0.607-0.171-1.235-0.256-1.881-0.256c-0.9,0-1.668,0.115-2.309,0.341c-0.625,0.228-1.142,0.53-1.552,0.903
				c-0.411,0.354-0.708,0.764-0.893,1.225c-0.188,0.469-0.28,0.936-0.28,1.4c0,0.774,0.178,1.378,0.521,1.831
				c0.354,0.447,0.82,0.82,1.405,1.123c0.591,0.287,1.258,0.524,2.007,0.717l2.355,0.523c0.821,0.176,1.61,0.39,2.373,0.645
				c0.792,0.237,1.494,0.583,2.11,1.041c0.622,0.441,1.121,1.011,1.5,1.709c0.384,0.708,0.571,1.599,0.571,2.664
				c0,1.98-0.685,3.531-2.066,4.631c-1.375,1.096-3.296,1.634-5.743,1.634c-1.101,0-2.124-0.147-3.072-0.443
				c-0.95-0.277-1.774-0.704-2.471-1.281c-0.696-0.597-1.245-1.326-1.642-2.18c-0.379-0.877-0.566-1.899-0.566-3.061L430.23,216.131
				z M281.28,201.424v1.989h-11.97v7.009h10.805v1.989h-10.805v8.292h12.261v1.989H267.03v-21.269H281.28z M284.638,216.131
				c0.088,1.055,0.288,1.832,0.607,2.471c0.34,0.623,0.763,1.128,1.268,1.521c0.528,0.396,1.129,0.688,1.811,0.877
				c0.686,0.171,1.419,0.257,2.204,0.257c0.92,0,1.708-0.116,2.369-0.342c0.665-0.228,1.198-0.528,1.606-0.9
				c0.412-0.393,0.708-0.841,0.894-1.342c0.207-0.505,0.311-1.042,0.311-1.605c0-0.793-0.18-1.42-0.524-1.892
				c-0.354-0.484-0.824-0.878-1.407-1.18c-0.569-0.322-1.238-0.582-2.004-0.773c-0.755-0.194-1.542-0.378-2.355-0.552
				c-0.8-0.195-1.592-0.42-2.373-0.674c-0.77-0.256-1.464-0.604-2.08-1.04c-0.601-0.44-1.092-1.002-1.471-1.68
				c-0.384-0.708-0.572-1.589-0.572-2.635c0-0.74,0.15-1.46,0.45-2.158c0.32-0.699,0.78-1.32,1.377-1.857
				c0.619-0.539,1.385-0.966,2.293-1.281c0.912-0.317,1.958-0.475,3.136-0.475c1.198,0,2.245,0.167,3.14,0.505
				c0.911,0.336,1.666,0.802,2.266,1.402c0.599,0.578,1.046,1.255,1.346,2.033c0.298,0.775,0.447,1.6,0.447,2.471l-2.193,0.15
				c0-0.929-0.143-1.596-0.422-2.153c-0.262-0.562-0.626-1.02-1.092-1.373c-0.469-0.357-1.005-0.62-1.609-0.791
				c-0.608-0.171-1.235-0.256-1.882-0.256c-0.9,0-1.668,0.115-2.308,0.341c-0.626,0.228-1.143,0.53-1.553,0.903
				c-0.411,0.354-0.708,0.764-0.893,1.225c-0.188,0.469-0.28,0.936-0.28,1.4c0,0.774,0.178,1.378,0.522,1.831
				c0.354,0.447,0.819,0.82,1.405,1.123c0.591,0.287,1.257,0.524,2.007,0.717l2.355,0.523c0.821,0.176,1.61,0.39,2.372,0.645
				c0.792,0.237,1.494,0.583,2.111,1.041c0.622,0.441,1.121,1.011,1.5,1.709c0.384,0.708,0.571,1.599,0.571,2.664
				c0,1.98-0.686,3.531-2.066,4.631c-1.375,1.096-3.296,1.634-5.744,1.634c-1.101,0-2.124-0.147-3.072-0.443
				c-0.95-0.277-1.774-0.704-2.471-1.281c-0.696-0.597-1.245-1.326-1.642-2.18c-0.378-0.877-0.566-1.899-0.566-3.061
				L284.638,216.131z M307.531,222.692h-2.281v-19.279h-6.64v-1.989h15.561v1.989h-6.641V222.692z M317.687,201.424v12.644
				c0,2.589,0.484,4.418,1.42,5.523c0.932,1.099,2.444,1.666,4.574,1.666c1.115,0,2.045-0.144,2.801-0.427
				c0.774-0.302,1.391-0.743,1.858-1.322c0.47-0.601,0.811-1.346,1.021-2.241c0.21-0.898,0.316-1.964,0.316-3.198v-12.644h2.28
				v13.226c0,2.761-0.686,4.9-2.079,6.393c-1.377,1.478-3.453,2.203-6.197,2.203c-2.763,0-4.849-0.746-6.227-2.262
				c-1.373-1.512-2.048-3.63-2.048-6.333v-13.226H317.687z M335.084,201.424h7.314c0.586,0,1.162,0.019,1.729,0.059
				c0.57,0.02,1.131,0.088,1.681,0.206c0.553,0.1,1.085,0.257,1.599,0.475c0.536,0.218,1.05,0.505,1.544,0.862
				c0.715,0.516,1.302,1.152,1.758,1.907c0.453,0.729,0.807,1.505,1.063,2.333c0.275,0.806,0.461,1.628,0.56,2.474
				c0.117,0.823,0.176,1.585,0.176,2.291s-0.049,1.419-0.147,2.144c-0.078,0.727-0.216,1.441-0.412,2.148
				c-0.197,0.689-0.462,1.358-0.797,2.008c-0.317,0.635-0.722,1.217-1.217,1.751c-0.495,0.555-1.04,1.001-1.638,1.34
				c-0.573,0.336-1.187,0.603-1.838,0.801c-0.628,0.177-1.291,0.305-1.978,0.384c-0.684,0.059-1.379,0.088-2.083,0.088h-7.314
				V201.424z M337.364,220.703h4.597c0.887,0,1.713-0.048,2.485-0.144c0.777-0.114,1.566-0.38,2.369-0.8
				c0.679-0.34,1.234-0.801,1.667-1.383c0.438-0.59,0.78-1.229,1.028-1.914c0.268-0.707,0.45-1.446,0.545-2.211
				c0.116-0.769,0.174-1.511,0.174-2.222c0-0.751-0.049-1.512-0.145-2.282c-0.095-0.785-0.278-1.521-0.544-2.208
				c-0.267-0.704-0.628-1.342-1.084-1.912c-0.451-0.583-1.037-1.066-1.758-1.445c-0.602-0.32-1.32-0.529-2.161-0.625
				c-0.848-0.096-1.707-0.144-2.575-0.144h-4.597V220.703z M357.101,222.692h-2.28v-21.269h2.28V222.692z M368.752,201.424
				l8.153,21.269h-2.361l-2.417-6.582h-9.344l-2.475,6.582h-2.363l8.36-21.269H368.752z M363.565,214.121h7.781l-3.891-10.429
				L363.565,214.121z M380.177,204.665v18.027h-2.281v-21.269h2.474l11.942,18.058v-18.058h2.281v21.269h-2.532L380.177,204.665z
				 M404.748,222.692h-2.281v-19.279h-6.64v-1.989h15.561v1.989h-6.64V222.692z M426.873,201.424v1.989h-11.97v7.009h10.805v1.989
				h-10.805v8.292h12.261v1.989h-14.542v-21.269H426.873z"/>
			<path d="M407.753,197.108h4.077c1.301,0,2.466-0.058,3.495-0.175c1.029-0.136,1.961-0.427,2.796-0.874
				c1.262-0.68,2.223-1.738,2.883-3.175c0.68-1.456,1.019-3.271,1.019-5.446c0-3.573-0.932-6.193-2.795-7.864
				c-0.894-0.776-1.942-1.272-3.146-1.485c-1.204-0.214-2.621-0.321-4.252-0.321h-4.077V197.108z M406.733,198.011v-21.172h4.864
				c1.417,0,2.679,0.068,3.786,0.204c1.126,0.116,2.126,0.398,3,0.844c1.515,0.738,2.67,1.913,3.466,3.524
				c0.815,1.592,1.224,3.602,1.224,6.029s-0.408,4.446-1.224,6.057c-0.796,1.612-1.951,2.767-3.466,3.466
				c-0.874,0.427-1.874,0.709-3,0.844c-1.106,0.136-2.369,0.204-3.786,0.204H406.733z M377.436,187.439
				c0,1.592,0.185,3.019,0.554,4.281c0.388,1.242,0.941,2.301,1.66,3.174c0.718,0.874,1.592,1.544,2.622,2.009
				c1.028,0.447,2.194,0.67,3.494,0.67c1.301,0,2.466-0.223,3.495-0.67c1.029-0.466,1.903-1.136,2.621-2.009
				c0.718-0.874,1.271-1.932,1.66-3.174c0.388-1.262,0.583-2.689,0.583-4.281s-0.194-3.01-0.583-4.252
				c-0.389-1.262-0.942-2.33-1.66-3.204c-0.718-0.874-1.592-1.544-2.621-2.01c-1.029-0.466-2.194-0.699-3.495-0.699
				c-1.3,0-2.466,0.233-3.494,0.699c-1.029,0.466-1.903,1.136-2.622,2.01c-0.718,0.874-1.271,1.941-1.66,3.204
				C377.62,184.43,377.436,185.847,377.436,187.439z M376.417,187.439c0-1.728,0.213-3.271,0.641-4.631
				c0.427-1.378,1.039-2.544,1.834-3.495c0.815-0.951,1.796-1.68,2.942-2.184c1.165-0.505,2.475-0.757,3.931-0.757
				c1.457,0,2.757,0.252,3.903,0.757c1.165,0.505,2.146,1.233,2.941,2.184c0.815,0.951,1.437,2.116,1.864,3.495
				c0.447,1.359,0.67,2.902,0.67,4.631c0,1.728-0.223,3.281-0.67,4.66c-0.427,1.359-1.048,2.514-1.864,3.465
				c-0.796,0.932-1.777,1.65-2.941,2.155c-1.146,0.504-2.446,0.757-3.903,0.757c-1.456,0-2.767-0.252-3.931-0.757
				c-1.146-0.505-2.126-1.223-2.942-2.155c-0.796-0.951-1.407-2.106-1.834-3.465C376.63,190.721,376.417,189.167,376.417,187.439z
				 M371.669,176.838h0.99v14.999c0,2.232-0.417,3.903-1.252,5.009s-2.223,1.66-4.165,1.66c-1.65,0-2.932-0.495-3.844-1.485
				c-0.893-0.99-1.34-2.447-1.34-4.368v-0.583c0-0.213,0.01-0.437,0.029-0.67h0.933c0,0.175-0.01,0.34-0.029,0.495v0.379
				c0,1.805,0.349,3.146,1.048,4.019c0.699,0.874,1.796,1.311,3.292,1.311c0.874,0,1.583-0.126,2.126-0.379
				c0.563-0.272,1.01-0.66,1.34-1.165c0.33-0.505,0.553-1.136,0.669-1.893c0.136-0.757,0.204-1.631,0.204-2.621V176.838z
				 M346.682,198.011v-21.172h12.901v0.961h-11.911v8.737h10.892v0.903h-10.892v9.611h12.203v0.96H346.682z M330.751,185.4
				c-0.99-0.893-1.485-2.058-1.485-3.494c0-0.816,0.145-1.553,0.437-2.214c0.291-0.68,0.708-1.262,1.252-1.748
				c0.543-0.505,1.204-0.893,1.98-1.165c0.796-0.272,1.689-0.408,2.68-0.408c0.99,0,1.893,0.156,2.708,0.466
				c0.835,0.291,1.553,0.718,2.155,1.281c0.602,0.544,1.068,1.194,1.398,1.951s0.495,1.592,0.495,2.504h-0.932
				c0-0.815-0.146-1.553-0.437-2.213c-0.292-0.66-0.699-1.223-1.224-1.689c-0.505-0.466-1.116-0.825-1.834-1.078
				c-0.719-0.252-1.514-0.379-2.388-0.379c-1.689,0-3.009,0.427-3.961,1.281c-0.932,0.854-1.398,1.99-1.398,3.407
				c0,1.126,0.437,2.077,1.311,2.854c0.272,0.252,0.583,0.466,0.932,0.64c0.35,0.175,0.748,0.34,1.194,0.496l1.311,0.378
				l1.456,0.408c0.505,0.136,0.99,0.282,1.457,0.437c0.466,0.136,0.883,0.272,1.252,0.408c1.282,0.485,2.243,1.087,2.883,1.806
				c0.641,0.718,0.961,1.738,0.961,3.058c0,0.913-0.166,1.738-0.495,2.476c-0.311,0.738-0.767,1.378-1.369,1.922
				c-0.602,0.543-1.339,0.961-2.213,1.251c-0.874,0.292-1.854,0.437-2.941,0.437c-1.029,0-1.971-0.155-2.825-0.466
				c-0.835-0.311-1.563-0.756-2.185-1.339c-0.621-0.602-1.126-1.33-1.515-2.184c-0.369-0.874-0.592-1.854-0.669-2.941h0.961
				c0.058,0.932,0.242,1.776,0.553,2.533c0.331,0.738,0.767,1.369,1.311,1.893c0.543,0.524,1.185,0.922,1.923,1.194
				c0.756,0.272,1.582,0.408,2.475,0.408c0.913,0,1.737-0.126,2.476-0.379c0.738-0.252,1.369-0.592,1.893-1.019
				c0.524-0.447,0.922-0.971,1.194-1.573c0.291-0.602,0.437-1.252,0.437-1.951c0-0.602-0.068-1.126-0.204-1.573
				c-0.136-0.447-0.34-0.835-0.612-1.165c-0.271-0.33-0.621-0.621-1.048-0.874c-0.407-0.252-0.883-0.485-1.427-0.699
				c-0.35-0.136-0.757-0.272-1.224-0.408c-0.465-0.136-0.951-0.272-1.456-0.407l-1.457-0.408c-0.485-0.136-0.913-0.272-1.281-0.407
				c-0.505-0.175-0.971-0.359-1.397-0.554C331.431,185.944,331.062,185.692,330.751,185.4z M309.753,198.011v-21.172h1.02
				l13.251,19.483v-19.483h0.99v21.172h-0.99l-13.28-19.454v19.454H309.753z M288.115,187.439c0,1.592,0.185,3.019,0.553,4.281
				c0.389,1.242,0.942,2.301,1.66,3.174c0.718,0.874,1.592,1.544,2.621,2.009c1.029,0.447,2.194,0.67,3.495,0.67
				s2.466-0.223,3.495-0.67c1.029-0.466,1.903-1.136,2.622-2.009c0.718-0.874,1.271-1.932,1.66-3.174
				c0.389-1.262,0.583-2.689,0.583-4.281s-0.194-3.01-0.583-4.252c-0.388-1.262-0.941-2.33-1.66-3.204
				c-0.719-0.874-1.592-1.544-2.622-2.01c-1.029-0.466-2.194-0.699-3.495-0.699s-2.466,0.233-3.495,0.699
				c-1.029,0.466-1.903,1.136-2.621,2.01c-0.718,0.874-1.271,1.941-1.66,3.204C288.3,184.43,288.115,185.847,288.115,187.439z
				 M287.096,187.439c0-1.728,0.214-3.271,0.641-4.631c0.427-1.378,1.039-2.544,1.834-3.495c0.815-0.951,1.796-1.68,2.942-2.184
				c1.165-0.505,2.475-0.757,3.931-0.757c1.457,0,2.757,0.252,3.903,0.757c1.165,0.505,2.146,1.233,2.941,2.184
				c0.815,0.951,1.437,2.116,1.864,3.495c0.446,1.359,0.67,2.902,0.67,4.631c0,1.728-0.224,3.281-0.67,4.66
				c-0.427,1.359-1.048,2.514-1.864,3.465c-0.796,0.932-1.777,1.65-2.941,2.155c-1.146,0.504-2.446,0.757-3.903,0.757
				c-1.456,0-2.767-0.252-3.931-0.757c-1.146-0.505-2.126-1.223-2.942-2.155c-0.796-0.951-1.408-2.106-1.834-3.465
				C287.31,190.721,287.096,189.167,287.096,187.439z M284.009,190.992c-0.058,1.146-0.301,2.185-0.728,3.116
				c-0.408,0.912-0.971,1.689-1.689,2.33c-0.699,0.64-1.544,1.135-2.534,1.485c-0.97,0.349-2.048,0.524-3.232,0.524
				c-1.378,0-2.611-0.243-3.699-0.728c-1.087-0.505-2.009-1.223-2.767-2.155c-0.757-0.951-1.34-2.106-1.747-3.465
				c-0.389-1.359-0.583-2.903-0.583-4.631c0-1.766,0.204-3.339,0.612-4.718c0.427-1.379,1.029-2.534,1.806-3.466
				c0.776-0.951,1.718-1.67,2.825-2.155c1.107-0.505,2.35-0.757,3.728-0.757c1.068,0,2.068,0.166,3,0.495
				c0.932,0.311,1.748,0.757,2.446,1.34c0.699,0.583,1.262,1.281,1.689,2.097c0.446,0.796,0.718,1.689,0.815,2.679h-0.99
				c-0.311-1.825-1.087-3.233-2.33-4.223c-1.223-0.99-2.825-1.485-4.805-1.485c-1.146,0-2.204,0.233-3.174,0.699
				c-0.952,0.447-1.767,1.107-2.447,1.98c-0.679,0.874-1.213,1.941-1.602,3.204c-0.369,1.262-0.553,2.699-0.553,4.31
				c0,1.612,0.175,3.048,0.524,4.311c0.369,1.242,0.884,2.291,1.544,3.146c0.68,0.854,1.485,1.514,2.417,1.98
				c0.932,0.447,1.98,0.67,3.146,0.67c1.068,0,2.039-0.146,2.913-0.437c0.893-0.311,1.66-0.747,2.3-1.311
				c0.641-0.582,1.146-1.271,1.515-2.068c0.369-0.815,0.583-1.738,0.641-2.767H284.009z M427.003,198.011v-21.172h12.902v0.961
				h-11.912v8.737h10.893v0.903h-10.893v9.611h12.203v0.96H427.003z M412.733,159.999l8.184-21.173h1.106l8.038,21.173H429.1
				l-2.738-7.222h-9.873l-2.766,7.222H412.733z M416.839,151.902h9.174l-4.543-11.911L416.839,151.902z M267.03,159.999v-21.173
				h1.02v11.911l11.737-11.911h1.252l-8.358,8.475l9.64,12.698h-1.194L272.04,148l-3.99,4.048v7.951H267.03z M283.281,149.427
				c0-1.728,0.214-3.272,0.641-4.631c0.427-1.378,1.039-2.543,1.834-3.495c0.815-0.951,1.796-1.679,2.942-2.184
				c1.165-0.505,2.476-0.757,3.932-0.757c1.457,0,2.757,0.252,3.903,0.757c1.165,0.505,2.146,1.233,2.941,2.184
				c0.815,0.951,1.437,2.116,1.864,3.495c0.446,1.359,0.67,2.903,0.67,4.631c0,1.728-0.224,3.281-0.67,4.66
				c-0.427,1.359-1.048,2.514-1.864,3.465c-0.796,0.932-1.777,1.65-2.941,2.155c-1.146,0.504-2.446,0.757-3.903,0.757
				c-1.456,0-2.767-0.252-3.932-0.757c-1.146-0.505-2.126-1.223-2.942-2.155c-0.796-0.951-1.407-2.106-1.834-3.465
				C283.495,152.708,283.281,151.155,283.281,149.427z M284.3,149.427c0,1.592,0.185,3.019,0.553,4.281
				c0.388,1.242,0.942,2.301,1.66,3.174c0.719,0.874,1.592,1.544,2.622,2.01c1.029,0.447,2.194,0.67,3.495,0.67
				s2.466-0.223,3.495-0.67c1.029-0.466,1.903-1.136,2.622-2.01c0.718-0.874,1.271-1.932,1.66-3.174
				c0.389-1.262,0.583-2.689,0.583-4.281c0-1.592-0.194-3.01-0.583-4.252c-0.388-1.262-0.942-2.33-1.66-3.204
				c-0.719-0.874-1.592-1.544-2.622-2.01c-1.029-0.466-2.194-0.699-3.495-0.699s-2.466,0.233-3.495,0.699
				c-1.029,0.466-1.903,1.136-2.622,2.01c-0.718,0.874-1.271,1.941-1.66,3.204C284.485,146.418,284.3,147.835,284.3,149.427z
				 M305.938,159.999v-21.173h1.02l13.251,19.483v-19.483h0.99v21.173h-0.99l-13.28-19.455v19.455H305.938z M330.664,159.999
				v-20.241h-6.699v-0.932h14.271v0.932h-6.582v20.241H330.664z M341.935,147.388c-0.99-0.893-1.485-2.058-1.485-3.495
				c0-0.815,0.146-1.553,0.437-2.213c0.291-0.68,0.709-1.262,1.252-1.748c0.543-0.505,1.204-0.893,1.98-1.165
				c0.796-0.272,1.689-0.408,2.68-0.408s1.893,0.156,2.708,0.466c0.834,0.291,1.553,0.718,2.155,1.281
				c0.603,0.544,1.068,1.194,1.398,1.951c0.33,0.757,0.495,1.592,0.495,2.505h-0.932c0-0.815-0.146-1.553-0.437-2.213
				c-0.292-0.66-0.699-1.223-1.223-1.689c-0.505-0.466-1.116-0.825-1.834-1.078c-0.719-0.252-1.514-0.379-2.388-0.379
				c-1.689,0-3.01,0.427-3.961,1.281c-0.932,0.855-1.398,1.991-1.398,3.408c0,1.126,0.437,2.078,1.311,2.854
				c0.272,0.252,0.583,0.466,0.932,0.64c0.35,0.175,0.747,0.34,1.194,0.496l1.311,0.378l1.456,0.408
				c0.505,0.136,0.99,0.282,1.457,0.437c0.466,0.136,0.883,0.272,1.252,0.408c1.282,0.485,2.243,1.087,2.883,1.805
				c0.641,0.718,0.961,1.738,0.961,3.058c0,0.913-0.165,1.738-0.495,2.476c-0.311,0.738-0.767,1.379-1.369,1.922
				c-0.602,0.544-1.339,0.961-2.213,1.252c-0.874,0.291-1.855,0.437-2.942,0.437c-1.029,0-1.971-0.155-2.825-0.466
				c-0.835-0.311-1.563-0.757-2.185-1.34c-0.622-0.602-1.126-1.33-1.515-2.184c-0.369-0.874-0.592-1.854-0.669-2.941h0.961
				c0.058,0.932,0.243,1.776,0.553,2.533c0.33,0.738,0.767,1.369,1.311,1.893c0.543,0.524,1.184,0.922,1.922,1.194
				c0.757,0.272,1.582,0.407,2.475,0.407c0.913,0,1.738-0.126,2.476-0.379c0.737-0.252,1.369-0.592,1.893-1.019
				c0.524-0.447,0.922-0.971,1.194-1.573c0.292-0.602,0.438-1.252,0.438-1.951c0-0.602-0.068-1.126-0.204-1.573
				c-0.136-0.447-0.34-0.835-0.612-1.165c-0.271-0.33-0.621-0.621-1.048-0.874c-0.408-0.252-0.883-0.485-1.427-0.698
				c-0.35-0.136-0.757-0.272-1.224-0.408c-0.466-0.136-0.951-0.272-1.456-0.407l-1.457-0.408c-0.485-0.136-0.913-0.272-1.282-0.407
				c-0.505-0.175-0.97-0.359-1.397-0.554C342.614,147.932,342.245,147.68,341.935,147.388z M357.865,159.999v-21.173h12.901v0.961
				h-11.912v8.737h10.893v0.903h-10.893v9.611h12.203v0.961H357.865z M374.698,159.999v-21.173h0.99v21.173H374.698z
				 M380.669,159.999v-21.173h0.99v20.212h11.212v0.961H380.669z M395.434,138.826h0.99v13.31c0,2.465,0.562,4.32,1.689,5.562
				c1.126,1.242,2.776,1.864,4.951,1.864c2.155,0,3.796-0.631,4.922-1.893c1.146-1.262,1.718-3.107,1.718-5.533v-13.31h0.991v13.775
				c0,1.243-0.175,2.349-0.524,3.32c-0.35,0.971-0.854,1.796-1.515,2.476c-0.66,0.66-1.466,1.175-2.417,1.543
				c-0.932,0.349-1.991,0.524-3.175,0.524c-2.407,0-4.281-0.679-5.621-2.038c-1.34-1.359-2.009-3.301-2.009-5.825V138.826z"/>
		</g>
	</g>
</g>
</svg>
