<?xml version="1.0" encoding="utf-8"?>
<!-- Generator: Adobe Illustrator 16.0.0, SVG Export Plug-In . SVG Version: 6.00 Build 0)  -->
<!DOCTYPE svg PUBLIC "-//W3C//DTD SVG 1.1//EN" "http://www.w3.org/Graphics/SVG/1.1/DTD/svg11.dtd">
<svg version="1.1" id="Layer_1" xmlns="http://www.w3.org/2000/svg" xmlns:xlink="http://www.w3.org/1999/xlink" x="0px" y="0px"
	 width="350px" height="232.258px" viewBox="0 0 350 232.258" enable-background="new 0 0 350 232.258" xml:space="preserve">
<g>
	<g>
		<path d="M297.55,221.849l-25.326-12.479l-1.883,4.57l-1.992-0.717l-5.572,4.01l-4.146-4.131c-0.582,0.188-1.227,0.262-1.896,0.193
			c-2.064-0.219-3.514-1.736-3.242-3.387l0.451-2.713l-5.229-6.02l10.996,2.258l-6.742-6.447l5.725,0.791l-11.266-9.52l14.172,6.291
			l-9.904-8.957l6.555,2.725l4.594,2.939l3.168,0.533l4.086,0.293l-1.732-5.104l-8.588-7.682l20.344,7.859l1.043-0.85l-1.74-2.807
			l-4.979-3.146l7.305,0.264l-14.535-8.572l13.213,2.588l2.125-1.346l-6.338-7.273l4.855,0.982l2.83,0.229l-6.549-2.992l3.848-0.035
			l-0.096-0.025l5.592-3.387l-6.537-2.6l11.98-1.318l-3.574-2.691l3.77-0.498l-8.85-6.18l3.357-0.035l-0.738-0.354l-17.66-2.764
			l25.67-2.139l-16.617-2.68l13.49-3.016l-7.885-1.143l11.117-5.072l-16.457-1.998l8.855-1.924l-6.918-0.725l0.494-0.141
			l-7.123,0.018l9.043-2.826l-6.926-0.363l6.76-1.922l-13.096-0.105l15.754-4.223l-8.393-1.18l1.008-0.357l-2.15,0.076l7.654-3.321
			l1.158-1.176l-22.137,2.564l16.141-5.994l-5.674,0.514l2.049-0.961l-11.986,2.525l23.365-12.457l-0.107-0.287l-0.117-0.115
			L263.708,102l12.662-8.334l-3.129,0.808l2.619-3.548l-15.697,5.024l10.859-7.681l0.85-1.158l-8.668,1.809l9.398-10.371
			l-4.615,0.301l-3.111,1.229l-2.752-1.875L240.298,89.57l17.82-15.689l-15.506,8.811l12.092-12.704l-2.053-2.43l-0.189-0.121
			l-15.121,10.229l7.77-10.343l-0.418-5.316l-7.611,3.744l2.037-3.205l-3.23,0.711l0.391-2.494L234.95,61l0.207-5.613l-3.729,1.208
			l0.664-1.913l-1.148,1.152l-0.57-1.262l-9.693,10.062l2.549-11.314l-2.063,0.371l1-3.209l-2.146,1.788l-8.883,12.738l2.969-13.511
			l-1.787,1.389l0.395-2.333l-5.836,7.298l0.475-2.258l-0.252,0.455l-2.219-10.661l-9.467,19.066l1.377-14.955l-0.021,0.025
			l-2.76-3.982l-2.813,0.379l-0.053-0.131l-2.689,5.492l-1.348-9.406l-0.082,0.122l-0.742-0.979l-6.998,10.059l-0.189-2.547
			l-1.294,3.204l-2.958-9.955l-1.864-0.13l-2.615,23.782l-1.826-8.952l-0.723,6.282l-1.857-8.21l-0.596,10.007l-6.645-22.981
			l-0.854,15.166l-2.082-4.532l-0.26,6.836l-5.664-13.538l-0.211,0.619l-1.033-1.705l-3.582,8.028l-2.133-4.399l-0.586,7.51
			l-2.475-4.189l-1.451-1.006l1.246,10.098l-6.046-7.879l1.349,5.479l-7.7-7.604l-0.151,1.817l-5.081,3.414l0.142,1.313
			l-6.949-0.758l-0.707,0.875l-3.971-1.86l2.77,8.611l-5.833-3.087l5.05,10.242l-0.523-0.414l1.611,2.383l-13.873-9.143
			l-0.486-0.127l0.956,4.559l-2.491,0.041l5.266,6.485l-5.927-2.719l13.099,14.871L98.262,78.94l-16.379-8.872l0.226,0.883
			l-2.226-0.447l3.488,5.743L97.73,88.723l-20.488-9.562l0.449,1.758l-4.501,0.52l2.94,6.574l4.26,3.135l-8.42-1.74l5.443,3.875
			l-15.047-2.986l0.064,0.256l2.27,1.346l9.99,10.293l-9.383-2.641l-5.561,0.369l19.331,10.42l-2.186-0.416l5.306,2.252
			l-27.305-4.398l4.486,1.684l-2.365,4.459l21.361,6.922l-20.743-1.268l4.3,2.537l-7.973-0.17l4.371,3.832l-8.74,0.492l7.447,1.859
			l-2.439,2.127l23.495,3.42l-17.783,1.406l1.433,0.188l-4.547,2.379l22.229,1.973l-22.606,2.803l-2.86,1.77l3.475,3.574
			l5.844,0.215l-9.975,5.244l-0.004,0.113l14.529,2.002l-7.439,2.439l2.619,0.303l18.914-0.879l-21.959,6.41l2.992,0.322
			l-4.359,2.016l10.609,1.156l-4.574,1.926l3.607,1.518l-5.642,3.273l0.03-0.008l29.121-7.396l-12.752,6.297l-11.889,6.012
			l19.342-5.393l-15.363,9.088l-2.799,2.258l12.836-3.277l-10.881,8.438l0.81,0.307l-0.46,2.793l2.273-0.451l-0.646,2.666
			l9.743-3.51l-5.484,6.193l13.606-4.926l-4.541,6.725l2.682-1.498l-1.111,5.664l1.051-0.645l1.449,4.207l3.605,1.461l-7.4,7.463
			c-3.592-1.699-5.971-0.438-7.174,0.287l-4.65-0.287l-0.111-2.795l-8.07,4.506l6.334-11.496l-0.163-0.668l-0.064,0.018l-5.18,0.137
			l-1.231-1.807l-12.434,4.479l7.871-8.408l-0.887-5.035l0.646-0.66l-7.734,0.273l4.291-3.326l0.008-0.225l-6.906-0.25l-14.37,2.895
			l12.997-6.945l-3.666-0.785l-14.17,3.047l8.406-4.148l7.555-6.063l0.053-3.559l-23.35,3.916l19.373-8.15l-12.467,0.637
			l8.581-3.973l-13.476-0.75l12.568-3.668l6.244-3.037l-4.048-2.693l3.787-1.242l-13.156-1.354l7.705-2.859l-13.556-3.436
			l17.788-3.041l0.99-1.09l-34.907-2.514l12.968-1.609l-11.349-1.008l26.022-3.107l-2.797-1.418l1.877-1.41l-24.946-3.627
			l28.172-1.838l-1.779-1.553l2.82-2.074l-2.995-3.656l1.328-0.072l-11.421-5.506l11.365,0.244l-3.925-2.436l-5.765-1.867
			l16.351-0.492l-4.698-1.764l4.03-3.785l-9.613-6.354l-13.59-5.778l19.409,3.706l-6.983-3.829l15.71,1.964l-26.82-13.796
			l22.635,6.367l6.816-0.17l-3.035-3.223l3.793-0.283l-7.396-5.265l8.581,1.344l-2.65-1.949L62.5,78.098l-6.938-7.723l8.042,2.549
			l-2.924-2.699l4.986-0.463L53.639,59.313l16.902,7.126l-0.994-4.227l4.098,0.822l1.135-0.699L58.484,44.181l23.529,15.893
			L68.951,43.987l21.9,15.157l-0.564-4.1l2.408,0.629l-0.128-1.107L81.164,37.692L95.09,48.734l-1.375-5.617l7.237,5.583
			l-4.61-13.166l14.848,13.451l0.883,0.031l0.529-0.654l-10.955-24.51l15.527,16.962l-4.281-13.091l9.355,10.01l-2.717-11.025
			l9.785,11.514l-0.289-2.344l1.789,1.243l6.156-4.698l0.858,1.455l2.165-8.506l2.908,6.001l1.719-7.37l3.023,4.992l1.453-4.289
			l0.164,0.396l0.158-4.194l3.941,8.569l1.199-3.907l4.467,5.342l0.17-0.081l1.401,0.67l4.354-9.71l1.492-12.98l1.674,8.211
			l0.929-8.434l3.233,14.72l0.895-4.639l5.088,11.899l5.866-15.814l0.975,13.106l1.529,2.015l1.217-1.806l2.684,2.444l5.346-10.908
			l0.742,19.914L206.78,23.08l-0.668,7.26l0.074-0.093l4.961,3.679l0.01-0.021l8.367,0.074l-0.57,2.723l3.398-0.151l10.77-15.442
			l-5.246,19.854l0.664,0.338l3.723,1.431l0.527-0.545l0.662,1.466l2.832-2.839l5.617,2.86l0.334,2.924l0.912-0.295l-0.311,7.122
			l0.305-0.055l24.127-21.836l-10.949,17.238l8.027-4.348l-7.107,10.022l4.541-1.209l13.16-8.905l-13.605,17.358l23.789-13.709
			l-11.031,11.588l-1.389,2.982l15.619-6.294l-3.082,2.71l5.686-2.959l-17.248,15.896l0.053,0.182l3.699-1.207l5.947,0.18
			l1.396,4.874l-3.225,3.27l5.475-0.846l-0.209,0.285l16.555-5.209l-5.656,4.002l5.141-1.646l-11.227,8.865l7.5,0.492l-1.047,0.844
			l12.58-3.523l-17.051,11.46l3.379,1.251l-1.018,0.984l15.137-0.205l-6.531,3.066l12.189-0.111l-14.115,5.244l-1.695,1.092
			l14.48-1.268l-8.096,3.512l9.635-0.33l-11.846,4.164l15.918,1.354l-11.027,2.956l8.523,0.773l-6.451,1.834l4.281,0.225
			l-2.99,0.934l10.875-0.029l-14.695,4.184l9.453,2.021l-10.371,2.256l1.129,5.756l-2.467,0.412l3.369,1.172l-4.908,2.771
			l0.154,0.023l-2.102,4.219l3.328,2.074l32.648,5.107l-25.35,0.551l12.709,3.176l-15.162,0.152l-5.854,4.336l9.219,4.266
			l-9.482,0.301l-4.514,1.787l25.021,7.689l-22.676-1.123l7.051,4.955l-2.146-0.172l11.402,5.818l-20.238-4.096l5.08,5.738
			l-0.764-0.166l9.43,4.736l-20.346-3.98l-0.074,0.125l-0.063,0.973l16.053,10.148l-15.381-3.574l2.824,3.27l-3.029-0.545
			l15.043,11.107l-21.793-8.42l1.441,3.141l14.174,10.436l-11.947-4.902l-9.391-2.012l9.15,8.352l-7.646-2.27L297.55,221.849z"/>
	</g>
	<g>
		<path d="M197.874,92.049c-0.266,0-0.553,0.023-0.844,0.047c-0.275,0.023-0.559,0.045-0.834,0.045
			c-0.074,0-0.146-0.002-0.219-0.004c-0.271-0.014-0.52-0.02-0.76-0.02c-1.867,0-2.879,0.354-4.645,0.701
			c-1.055,0.209-2.27,0.203-3.117,0.531c-0.988,0.383-1.824,1.517-2.662,2.13c-1.227,0.892-2.387,1.613-3.346,2.74
			c-0.457,0.527-0.914,1.123-1.299,1.75c-0.395,0.656-0.895,1.26-1.213,1.902c-0.223,0.449-0.324,0.949-0.535,1.369
			c-0.322,0.643-0.827,1.119-1.142,1.75c-0.307,0.623-0.436,1.367-0.758,2.129c-0.238,0.557-0.67,0.959-0.914,1.441
			c-1.922,3.816-2.813,7.942-2.438,13.083c0.045,0.584,0.242,1.125,0.306,1.676c0.193,1.762,0.13,3.273,0.681,4.715
			c1.08,2.818,3.492,5.295,5.636,6.996c1.361,1.088,2.93,2.051,4.641,2.588c2.686,0.84,5.809,1.383,8.82,1.9
			c1.627,0.287,2.887,0.754,4.721,0.99c0.48,0.064,0.857,0.094,1.174,0.094c0.877,0,1.287-0.24,2.172-0.699
			c1.771-0.93,1.045-2.32-0.074-3.275c-1.324-1.113-3.377-1.84-5.248-2.43c-3.965-1.244-8.311-1.947-11.184-4.26
			c-1.172-0.943-3.473-2.494-2.811-4.488c3.58,0.1,7.172,0.146,10.568,0.381c0.322,0.02,0.662,0.031,1.008,0.031
			c1.221,0,2.541-0.131,3.633-0.34c2.426-0.459,4.631-1.303,6.465-2.203c0.846-0.416,1.494-1.068,2.283-1.523
			c0.475-0.271,1.016-0.416,1.445-0.682c0.861-0.539,1.459-1.436,2.434-1.676c0.752,1.432,0.307,3.072,0.609,4.566
			c0.09,0.461,0.393,0.967,0.533,1.518c0.369,1.488,0.488,3.227,1.143,4.342c0.221,0.387,0.756,0.715,1.213,1.213
			c0.389,0.428,0.695,1,1.064,1.369c0.426,0.42,1.057,0.66,1.449,1.064c0.686,0.715,1.021,1.555,1.67,2.053
			c0.26,0.203,0.797,0.449,1.215,0.689c0.461,0.26,0.902,0.639,1.221,0.758c0.479,0.188,1.133,0.17,1.598,0.379
			c0.631,0.283,1.152,0.785,1.75,1.068c0.744,0.352,1.584,0.533,2.436,0.836c1.697,0.604,3.256,0.949,5.17,1.367
			c0.955,0.211,1.924,0.229,2.967,0.381c0.449,0.068,0.854,0.32,1.293,0.381c2.727,0.381,6.16,0.279,8.443,1.143
			c1.359,0.514,2.568,1.477,3.773,1.477c0.516,0,1.027-0.176,1.555-0.641c0.582-0.516,1.328-1.857,1.293-2.432
			c-0.096-1.477-2.908-2.742-4.262-3.428c-1.85-0.924-3.764-1.389-5.861-1.902c-1.971-0.477-4.113-1.096-6.234-1.441
			c-3.293-0.535-6.037-1.262-8.445-2.584c-0.656-0.363-1.832-0.961-1.52-1.832c0.154-0.412,2.107-0.545,2.816-0.605
			c2.172-0.188,4.307-0.533,6.156-0.684c1.086-0.09,2.154-0.035,3.352-0.152c0.885-0.09,1.525-0.488,2.434-0.84
			c1.623-0.619,2.561-1.359,3.879-2.127c0.713-0.414,1.527-0.748,2.061-1.141c0.475-0.357,0.879-1.051,1.441-1.523
			c0.633-0.539,1.152-1.113,1.441-1.596c0.34-0.557,0.334-1.006,0.611-1.451c0.32-0.51,1.018-0.846,1.289-1.287
			c0.428-0.697,0.627-1.803,1.07-2.74c0.271-0.574,0.574-1.008,0.834-1.674c0.256-0.664,0.66-1.203,0.836-1.748
			c0.246-0.75,0.449-2.305,0.381-3.191c-0.057-0.756-0.631-1.676-0.684-2.438c-0.084-1.244,0.592-2.225,0.303-3.65
			c-0.145-0.717-0.773-1.096-1.064-1.904c-0.289-0.795-0.271-1.754-0.605-2.431c-0.369-0.738-2.109-1.947-2.971-2.055
			c-0.092-0.014-0.182-0.018-0.273-0.018c-0.838,0-1.736,0.42-2.539,0.475c-0.053,0.004-0.105,0.006-0.158,0.006
			c-0.543,0-1.146-0.143-1.744-0.156c-0.02-0.002-0.037-0.002-0.057-0.002c-0.307,0-0.615,0.043-0.928,0.08
			c-0.289,0.037-0.582,0.076-0.855,0.076c-0.045,0-0.09,0-0.137-0.004c-0.865-0.043-1.682-0.521-2.438-0.533h-0.018
			c-0.455,0-0.961,0.211-1.5,0.227c-0.051,0.002-0.102,0.004-0.152,0.004c-0.234,0-0.475-0.02-0.719-0.043
			c-0.258-0.02-0.514-0.041-0.77-0.041c-0.088,0-0.176,0-0.262,0.008c-1.578,0.119-3.176,0.852-4.869,1.215
			c-1.664,0.354-3.146,0.943-4.643,1.523c-1.459,0.563-3.07,0.943-4.563,1.523c-1.342,0.518-2.871,1.447-3.729,2.432
			c-0.506,0.584-0.885,1.348-1.369,1.977c-0.965,1.266-2.115,2.48-2.891,3.805c-0.404,0.693-0.551,1.637-1.371,2.049
			c-0.992-2.861,1.195-5.758,0.309-8.592c-0.176-0.568-0.971-1.25-1.451-2.051c-0.516-0.887-0.771-1.81-1.287-2.363
			c-0.275-0.283-1.039-0.539-1.449-0.91c-0.287-0.271-0.471-0.777-0.832-1.215c-0.32-0.392-0.814-0.705-1.064-1.066
			c-0.648-0.933-1.184-1.802-2.057-2.13c-0.354-0.131-0.797-0.162-1.268-0.162c-0.215,0-0.436,0.006-0.66,0.014
			c-0.223,0.008-0.451,0.016-0.674,0.016c-0.201,0-0.4-0.006-0.592-0.021c-0.832-0.063-1.637-0.545-2.357-0.609
			C198.032,92.051,197.954,92.049,197.874,92.049 M181.749,118.759c-0.047,0-0.098-0.004-0.148-0.01
			c-0.346-1.371,0.412-2.75,0.99-3.951c1.49-3.135,4.711-6.305,8.211-7.297c1.188-0.342,2.602-0.643,3.883-0.762
			c0.242-0.025,0.563-0.033,0.922-0.033c0.76,0,1.697,0.043,2.5,0.105c1.324,0.104,3.057,0.182,3.727,0.838
			c0.559,0.543,0.568,1.482,0.762,2.283c0.256,1.09,0.57,1.588,0.527,2.51c-0.078,1.965-1.516,4.495-3.039,5.172
			c-1.355,0.605-3.088,0.693-4.912,0.693c-0.367,0-0.74-0.002-1.113-0.006c-0.398,0-0.801-0.006-1.199-0.006
			c-1.09,0-2.227,0.229-3.352,0.229c-1.816,0-3.541-0.625-4.936-0.625c-0.133,0-0.262,0.004-0.387,0.018
			C183.249,118.009,182.604,118.759,181.749,118.759 M220.806,123.079c-0.129,0-0.24-0.02-0.334-0.066
			c-0.684-0.346-0.387-2.213-0.156-2.887c0.748-2.205,2.951-4.367,5.025-5.402c2.35-1.174,5.129-2.088,8.061-2.362
			c0.201-0.02,0.406-0.025,0.617-0.025c0.617,0,1.268,0.064,1.936,0.133c0.646,0.061,1.322,0.127,2.01,0.127
			c0.078,0,0.156,0,0.232-0.002c0.445-0.006,0.932-0.152,1.441-0.152c0.816,0.006,1.561,0.322,2.586,0.533
			c2.215,0.441,2.111,1.477,1.293,3.348c-0.648,1.479-1.664,2.988-3.041,3.725c-1.213,0.645-3.172,0.885-5.326,1.295
			c-3.182,0.6-6.496,0.963-9.961,1.215c-0.182,0.012-0.35,0.021-0.514,0.021c-0.219,0-0.424-0.012-0.625-0.021
			c-0.207-0.012-0.408-0.02-0.613-0.02c-0.146,0-0.301,0.006-0.459,0.02C222.376,122.614,221.421,123.079,220.806,123.079"/>
	</g>
	<g>
		<path d="M115.355,92.248c-0.396,0-0.744,0.01-1.002,0.035c-1.301,0.135-2.795,0.307-4.334,0.613
			c-1.355,0.264-2.758,0.686-3.922,0.686c-0.064,0-0.129,0-0.189-0.004c-0.848-0.035-1.533-0.32-2.295-0.32
			c-0.096,0-0.193,0.004-0.291,0.012c-1.959,0.217-3.055,1.603-3.799,3.12c-0.641,1.313-0.779,2.098-0.842,4.033
			c-0.026,0.893-0.168,1.857-0.15,2.59c0.066,2.109,0.59,4.34,0.687,6.693c0.276,6.926-0.206,14.534,0.38,21.372
			c0.125,1.496,0.521,2.99,0.688,4.563c0.163,1.621,0.076,3.398,0.374,4.873c0.147,0.711,0.603,1.672,0.914,2.508
			c0.341,0.902,1.042,1.596,1.829,1.596c1.471,0,1.95-1.893,2.359-3.646c0.383-1.664,0.926-3.369,1.139-4.869
			c0.315-2.238,0.315-3.973,1.064-5.48c0.447-0.893,0.955-1.08,1.441-1.898c0.387-0.641,0.961-1.619,1.523-1.904
			c0.676-0.34,1.709-0.363,2.59-0.609c0.863-0.242,1.596-0.703,2.357-0.914c0.761-0.205,1.568-0.316,2.359-0.533
			c0.896-0.242,1.77-0.207,2.584-0.381c0.598-0.117,1.09-0.471,1.594-0.527c1.336-0.164,2.906-0.217,4.342-0.234
			c0.385,0,0.824,0.041,1.272,0.076c0.438,0.035,0.89,0.07,1.319,0.07c0.434,0,0.848-0.035,1.207-0.146
			c1.334-0.4,2.771-2.434,2.817-4.408c0.007-0.461-0.151-0.945-0.306-1.521c-0.42-1.594-0.908-1.713-2.357-2.281
			c-0.764-0.297-1.38-0.666-2.057-0.838c-3.566-0.915-8.316-0.817-12.473-1.065c-1.119-0.064-3.068,0.004-4.183-0.377
			c-0.716-0.25-1.999-1.42-2.128-1.982c-0.166-0.68,0.072-1.803,0.072-2.51c0.006-1.256-0.398-2.305,0.078-3.344
			c0.285-0.619,1.654-1.369,2.277-1.596c1.439-0.518,2.996-0.535,4.949-0.684c1.846-0.148,3.821-0.693,5.777-0.84
			c0.488-0.035,0.973-0.049,1.454-0.049c0.769,0,1.524,0.035,2.261,0.066c0.715,0.035,1.408,0.066,2.074,0.066
			c0.201,0,0.404-0.004,0.604-0.01c2.225-0.063,3.324-0.631,3.956-2.203c0.325-0.818,0.874-1.404,0.835-2.279
			c-0.084-1.949-2.09-3.175-3.725-3.733c-0.678-0.225-1.451-0.295-2.209-0.527c-0.615-0.193-1.105-0.643-1.75-0.762
			c-0.916-0.176-1.959-0.09-3.041-0.152c-1.969-0.119-3.896-0.273-5.936-0.307C116.805,92.271,116.014,92.248,115.355,92.248"/>
	</g>
	<g>
		<path d="M125.041,143.521c-0.148,0-0.289,0.012-0.416,0.033c-1.062,0.189-1.875,1.301-2.357,1.906
			c-0.48,0.596-1.068,1.451-1.295,2.201c-0.551,1.813-0.556,4.518-0.762,7.002c-0.063,0.732-0.328,1.424-0.381,2.129
			c-0.209,2.801,0.107,5.119,0.076,7.758c-0.012,1.299-0.229,2.582-0.229,3.803c0,0.994,0.084,2.432,0,3.732
			c-0.087,1.309-0.023,3.029-0.381,3.5c-0.449,0.59-1.336,0.686-2.255,0.686c-0.212,0-0.427-0.002-0.638-0.012
			c-0.219,0-0.436-0.006-0.645-0.006c-0.17,0-0.336,0.004-0.492,0.016c-1.135,0.084-2.311,0.539-3.65,0.605
			c-4.033,0.223-8.117,0.141-11.258,1.604c-2.273,1.051-3.479,2.082-4.949,3.879c-0.42,0.518-1.057,1.436-1.137,2.051
			c-0.043,0.334-0.102,1.354,0.383,1.676c0.133,0.09,0.281,0.123,0.438,0.123c0.426,0,0.918-0.252,1.383-0.275
			c0.188-0.012,0.403-0.018,0.633-0.018c0.826,0,1.832,0.076,2.336,0.242c0.504,0.174,0.885,0.801,1.521,1.143
			c0.402,0.217,0.924,0.256,1.293,0.455c0.797,0.439,1.177,1.365,1.897,1.752c1.501,0.799,3.841,0.693,6.091,0.758
			c0.563,0.018,1.086,0.205,1.598,0.229c0.029,0.004,0.063,0.004,0.098,0.004c0.176,0,0.361-0.023,0.541-0.041
			c0.193-0.027,0.391-0.053,0.576-0.053c0.078,0,0.154,0.006,0.227,0.018c2.021,0.316,2.748,2.555,4.793,2.961
			c0.209,0.045,0.426,0.063,0.649,0.063c0.942,0,1.979-0.311,2.624-0.439c0.914-0.186,1.506-0.123,1.748-0.303
			c0.409-0.295,1.183-2.186,1.297-2.738c0.141-0.727-0.027-1.453,0.074-2.209c0.057-0.426,0.27-0.961,0.381-1.445
			c0.117-0.564,0.105-1.184,0.227-1.594c0.136-0.477,0.641-0.967,0.834-1.449c0.527-1.305,0.791-2.881,0.989-4.559
			c0.079-0.648,0.255-1.289,0.306-1.904c0.074-0.912,0.246-1.949,0.229-2.811c-0.007-0.482-0.229-0.967-0.229-1.449
			c0-1.234,0.053-2.645,0.229-3.881c0.09-0.645,0.346-1.299,0.38-1.979c0.106-2.123-0.29-4.76-0.228-6.617
			c0.047-1.404,0.473-2.836,0.381-4.264c-0.047-0.709-0.324-1.453-0.307-2.129c0.035-1.318,1.16-2.488,1.143-4.035
			c-0.006-0.4-0.309-0.914-0.303-1.367c0.006-1.006,0.535-1.799,0.228-2.664C128.274,144.323,126.316,143.521,125.041,143.521"/>
	</g>
	<g>
		<path d="M212.229,146.003c-0.176,0-0.371,0.02-0.586,0.064c-0.611,0.117-1.67,0.84-2.051,1.441
			c-0.383,0.615-0.477,1.566-0.758,2.209c-0.578,1.291-1.695,2.006-2.361,3.041c-0.318,0.488-1.232,2.527-1.293,2.971
			c-0.055,0.416,0.113,0.875,0.074,1.289c-0.041,0.457-0.311,0.879-0.383,1.297c-0.168,0.994-0.283,2.174-0.225,3.193
			c0.039,0.656,0.268,1.301,0.225,1.98c-0.027,0.557-0.303,1.252-0.455,1.979c-0.156,0.752-0.145,1.57-0.301,2.203
			c-0.391,1.561-1.613,4.586-2.436,5.785c-0.592,0.861-1.221,1.201-1.844,1.201c-1.225,0-2.422-1.316-3.252-2.572
			c-0.863-1.305-1.436-2.795-2.207-4.342c-0.701-1.408-1.564-3.129-1.826-4.713c-0.24-1.424-0.293-2.916-0.609-4.26
			c-0.338-1.457-0.742-2.912-0.756-4.182c-0.008-0.58,0.219-1.043,0.15-1.525c-0.068-0.473-0.818-1.617-1.143-1.975
			c-0.348-0.391-1.158-0.936-1.678-1.451c-0.857-0.857-1.355-1.555-2.486-1.555c-0.328,0-0.703,0.059-1.158,0.188
			c-0.518,0.146-1.186,0.271-1.748,0.459c-0.871,0.285-0.967,1.064-1.832,1.369c-0.652,0.229-1.361-0.027-1.594,0.529
			c-0.289,0.689,0.396,1.289,0.533,1.828c0.123,0.537,0.094,1.117,0.227,1.67c0.131,0.572,0.416,1.107,0.533,1.68
			c0.125,0.598,0.133,1.277,0.229,1.9c0.09,0.621,0.369,1.176,0.453,1.752c0.129,0.861,0.164,1.781,0.229,2.664
			c0.063,0.855,0.32,1.682,0.381,2.504c0.039,0.479-0.041,0.979,0,1.447c0.199,2.309,1.242,5.01,2.057,6.922
			c0.322,0.762,0.455,1.623,0.76,2.283c0.223,0.48,0.658,0.934,0.91,1.443c0.924,1.885,1.539,3.408,2.893,4.949
			c1.109,1.266,2.156,1.799,3.65,2.584c0.58,0.307,1.254,0.793,1.748,0.84c0.018,0,0.033,0.004,0.051,0.004
			c0.295,0,0.74-0.182,1.248-0.238c0.873-0.09,1.9-0.066,2.355-0.225c0.488-0.17,0.967-0.766,1.6-1.064
			c0.451-0.217,1.002-0.293,1.441-0.533c0.439-0.246,0.906-0.803,1.521-1.215c1.158-0.791,3.156-1.84,3.652-2.971
			c0.225-0.51,0.211-1.275,0.381-1.67c0.58-1.348,2.25-1.711,3.043-2.969c0.586-0.928,0.262-1.781,0.527-3.27
			c0.227-1.252,1.445-2.217,1.598-3.652c0.115-0.992-0.297-2.285-0.074-3.576c0.082-0.449,0.545-0.93,0.689-1.521
			c0.1-0.445,0.049-0.967,0.15-1.447c0.113-0.564,0.465-1.057,0.531-1.596c0.059-0.479-0.053-0.943,0-1.445
			c0.051-0.498,0.225-0.934,0.225-1.449c0.008-1.141-0.477-1.84-0.527-2.811c-0.063-1.051,0.324-2.58,0.607-3.58
			C213.788,148.212,214.067,146.003,212.229,146.003"/>
	</g>
	<g>
		<path d="M151.75,151.718c-0.133,0-0.273,0.039-0.426,0.133c-0.563,0.334-1.086,0.158-1.676,0.301
			c-0.398,0.094-1.664,0.762-1.897,0.988c-0.528,0.527-0.956,2.408-1.296,3.652c-0.409,1.488-0.926,2.842-1.217,3.727
			c-0.787,2.373-1.776,5.051-2.59,7.381c-0.892,2.578-2.197,4.65-3.117,6.77c-0.973,2.24-1.817,4.928-2.433,7.535
			c-0.216,0.896-0.409,2.281-0.38,3.117c0.018,0.471,0.273,1.092,0.38,1.748c0.079,0.514,0.028,0.996,0.075,1.445
			c0.153,1.391,1.459,2.68,2.438,2.738c0.037,0,0.076,0.004,0.115,0.004c0.861,0,1.889-0.58,2.24-1.223
			c0.295-0.539,0.353-1.531,0.607-2.203c0.508-1.314,1.58-2.697,2.285-3.805c0.352-0.557,0.57-1.113,0.906-1.217
			c0.135-0.037,0.27-0.055,0.402-0.055c0.282,0,0.563,0.072,0.85,0.146c0.285,0.07,0.575,0.143,0.887,0.143
			c0.049,0,0.098,0,0.146-0.006c0.422-0.029,0.837-0.398,1.371-0.457c0.306-0.025,0.603-0.025,0.88-0.025c0.07,0,0.145,0,0.215,0
			c0.422,0,0.813-0.023,1.189-0.199c0.6-0.285,0.651-0.891,1.367-1.295c0.461-0.262,1.182-0.34,1.822-0.609
			c1.744-0.73,4.061-0.984,5.783-1.521c0.824-0.258,1.716-1.33,2.672-1.33c0.098,0,0.193,0.012,0.292,0.035
			c0.54,0.135,0.687,0.842,0.989,1.523c1.407,3.186,2.42,5.713,3.879,8.9c0.477,1.035,1.08,2.602,2.287,2.602
			c0.072,0,0.146-0.006,0.222-0.018c0.655-0.096,0.763-0.699,1.222-1.061c0.348-0.283,0.777-0.318,0.988-0.535
			c0.563-0.59,0.932-1.908,0.988-2.74c0.119-1.84-0.566-3.342-0.913-4.637c-0.286-1.076-0.41-2.248-0.837-3.275
			c-0.452-1.09-1.067-2.201-1.141-2.963c-0.137-1.336,0.717-2.402,0.302-3.652c-0.416-0.363-1.507-0.15-2.052-0.381
			c-1.158-0.486-2.577-3.633-3.198-4.717c-1.929-3.422-4.435-6.07-6.69-9.129c-1.407-1.922-2.884-4.318-5.093-4.947
			c-0.341-0.092-0.784-0.035-1.218-0.15C152.697,152.28,152.268,151.718,151.75,151.718 M151.904,173.626
			c-0.453,0-0.883-0.047-1.27-0.17c-0.131-2.646,1.869-4.783,2.512-6.773c0.235-0.723,0.186-1.93,1.051-1.93
			c0.074,0,0.156,0.008,0.244,0.025c0.736,0.158,2.311,1.711,2.811,2.285c0.602,0.68,1.125,1.539,1.676,2.355
			c0.313,0.461,1.578,1.936,1.449,2.586c-0.164,0.797-3.932,0.906-4.795,1.07C154.419,173.298,153.08,173.626,151.904,173.626"/>
	</g>
	<g>
		<path d="M159.178,93.162c-0.279,0-0.543,0.012-0.783,0.035c-0.677,0.068-1.375,0.125-2.053,0.307
			c-0.557,0.148-1.05,0.55-1.595,0.681c-0.521,0.125-1.079,0.029-1.601,0.154c-0.779,0.188-1.664,0.664-2.432,0.988
			c-0.885,0.373-1.839,0.568-2.584,0.914c-0.773,0.354-1.518,0.869-2.209,1.291c-0.732,0.453-1.313,1.066-2.051,1.449
			c-1.188,0.602-3.143,0.885-3.881,1.75c-0.272,0.316-0.602,1.326-0.84,2.129c-0.393,1.33-0.967,2.709-0.834,4.105
			c0.061,0.643,0.588,1.148,0.686,1.902c0.369,2.881-0.129,6.038-0.08,9.127c0.041,2.041,0.064,4.104,0.154,6.156
			c0.137,3.152,0.652,6.285,0.835,9.285c0.158,2.607-0.263,5.371,0,8.295c0.097,1.09,0.438,2.361,0.687,3.5
			c0.285,1.301,1.001,2.215,1.977,2.277c0.072,0.006,0.141,0.008,0.207,0.008c1.303,0,1.465-0.949,2.078-1.91
			c0.537-0.846,1.107-1.191,1.596-2.053c0.487-0.861,0.834-1.969,1.215-2.963c0.826-2.145,1.443-3.234,1.751-5.785
			c0.118-0.982-0.028-2.266,0.686-2.438c0.04-0.012,0.081-0.012,0.124-0.012c0.445,0,1.229,0.398,1.627,0.627
			c1.459,0.832,2.057,1.617,3.266,2.656c0.648,0.551,1.387,1.029,1.98,1.604c1.102,1.055,2.438,2.607,3.727,3.498
			c0.51,0.354,1.217,0.65,1.822,1.063c0.954,0.654,1.592,1.451,2.359,1.75c0.271,0.105,0.711,0.154,1.152,0.154
			c0.479,0,0.955-0.059,1.209-0.154c1.354-0.516,2.715-3.551,2.584-5.324c-0.068-0.873-0.824-1.893-1.369-2.736
			c-1.646-2.566-3.821-4.434-5.855-6.473c-2.236-2.238-3.855-4.203-6.087-6.236c-0.638-0.584-1.88-1.369-1.599-2.359
			c0.192-0.658,1.037-0.764,2.004-0.764c0.211,0,0.428,0.006,0.645,0.012c0.217,0.002,0.434,0.006,0.646,0.006
			c0.174,0,0.346-0.004,0.512-0.016c2.426-0.135,3-0.756,4.561-1.668c0.703-0.416,1.546-0.832,2.056-1.293
			c0.563-0.502,1.642-1.768,1.903-2.355c0.223-0.52,0.215-1.178,0.453-1.68c0.363-0.766,1.166-1.158,1.37-2.047
			c0.097-0.432,0.018-0.881,0.075-1.371c0.09-0.768,0.47-1.545,0.533-2.209c0.066-0.721-0.028-1.592-0.152-2.43
			c-0.491-3.369-1.295-5.652-2.813-7.687c-0.648-0.857-1.568-2.146-2.284-2.583C163.457,93.668,161.004,93.162,159.178,93.162
			 M149.28,112.676c-0.053,0-0.105-0.004-0.163-0.01c-0.441-0.795-0.459-2.002-0.459-3.113c0-1.234,0.24-2.531,0.229-3.656
			c0-0.51-0.257-1.121-0.15-1.594c0.133-0.602,1.212-1.113,1.979-1.598c0.658-0.414,1.602-0.955,2.357-1.141
			c0.662-0.164,1.559-0.313,2.387-0.313c0.555,0,1.082,0.066,1.492,0.238c0.551,0.229,1.306,1.215,1.75,1.824
			c0.856,1.182,1.437,2.871,0.301,4.105c-0.956,1.039-2.943,1.518-4.255,2.283c-0.96,0.559-1.88,1.092-2.817,1.594
			C151.061,111.768,150.311,112.676,149.28,112.676"/>
	</g>
	<g>
		<path d="M235.38,147.966c-0.049,0-0.1,0.002-0.15,0.002c-1.486,0.041-2.301,0.621-3.426,0.99c-0.977,0.316-1.975,0.443-2.666,0.76
			c-1.412,0.646-2.578,1.881-3.953,2.586c-0.459,0.232-1.021,0.297-1.447,0.533c-2.426,1.369-4.367,5.203-4.635,8.443
			c-0.184,2.125-0.213,5.16,0,7.453c0.164,1.828,0.877,3.029,1.746,4.342c1.117,1.678,2.357,4.189,4.855,4.189
			c0.078,0,0.16-0.004,0.242-0.01c0.951-0.064,1.865-0.793,2.965-0.834c0.064-0.004,0.127-0.004,0.191-0.004
			c0.768,0,1.818,0.15,2.701,0.305c0.852,0.162,2.027,0.305,2.666,0.533c0.902,0.332,1.688,1.229,2.43,1.904
			c0.625,0.568,1.932,1.557,1.83,2.512c-0.051,0.436-0.824,1.119-1.523,1.367c-1.164,0.414-2.688,0.357-4.033,0.686
			c-1.434,0.35-2.623,1.184-4.186,1.445c-0.436,0.072-0.875,0.1-1.316,0.1c-1.639,0-3.295-0.402-4.695-0.48
			c-0.455-0.027-0.893-0.039-1.314-0.039c-3.061,0-5.318,0.648-8.113,1.102c-3.107,0.51-6.967,0.305-9.432,1.375
			c-0.635,0.271-1.545,0.709-2.283,1.215c-1.277,0.861-3.334,2.092-3.65,3.498c-0.139,0.604,0.053,1.336,0.072,1.979
			c0.023,0.67-0.09,1.391,0.152,1.9c0.355,0.742,1.709,1.158,2.846,1.158c0.121,0,0.234-0.006,0.348-0.016
			c0.818-0.072,1.424-0.688,2.066-0.688c0.018,0,0.043,0,0.064,0c0.635,0.041,1.314,0.729,1.904,0.99
			c0.656,0.289,1.43,0.727,2.207,0.762c0.031,0,0.057,0.002,0.088,0.002c0.537,0,1.021-0.246,1.584-0.305
			c0.076-0.008,0.156-0.012,0.236-0.012c0.148,0,0.299,0.012,0.455,0.018c0.148,0.01,0.299,0.021,0.451,0.021
			c0.129,0,0.252-0.01,0.377-0.027c0.555-0.084,1.043-0.43,1.598-0.533c0.65-0.119,1.359-0.125,2.057-0.229
			c0.664-0.1,1.354-0.271,1.979-0.307c0.055-0.004,0.113-0.004,0.172-0.004c0.258,0,0.514,0.021,0.768,0.045
			c0.238,0.02,0.477,0.043,0.717,0.043c0.082,0,0.162-0.002,0.246-0.008c1.055-0.063,2.197-0.361,3.273-0.457
			c1.125-0.1,2.334-0.186,3.266-0.455c1.236-0.354,2.316-1.127,3.496-1.594c1.131-0.447,2.568-1.283,3.732-1.449
			c0.178-0.027,0.357-0.033,0.533-0.033c0.23,0,0.457,0.016,0.686,0.027c0.211,0.012,0.416,0.023,0.621,0.023
			c0.123,0,0.244-0.004,0.365-0.018c0.52-0.051,1.031-0.262,1.521-0.299c0.592-0.053,1.154,0.008,1.67-0.08
			c2.713-0.48,4.904-1.898,6.471-3.574c1.539-1.654,3.115-3.635,2.74-6.998c-0.291-2.596-2.166-4.563-3.883-6.238
			c-2.34-2.287-3.891-3.891-6.846-5.33c-1.004-0.484-1.883-1.164-2.893-1.521c-1.371-0.482-2.883-0.447-3.193-1.67
			c-0.287-1.133,0.498-2.943,1.215-3.727c0.924-1.01,1.842-1.143,3.424-1.449c0.535-0.1,1.129-0.244,1.584-0.244
			c0.088,0,0.17,0.006,0.246,0.016c0.914,0.154,1.193,1.178,2.131,1.297c0.084,0.012,0.17,0.016,0.26,0.016
			c0.76,0,1.758-0.338,2.479-0.549c1.91-0.574,3.043-0.861,4.105-2.205c0.457-0.584,0.984-1.119,1.291-1.676
			c0.32-0.584,0.932-1.611,0.838-2.588c-0.084-0.838-0.857-1.15-1.066-2.053c-0.252-1.084-0.102-1.934-0.764-2.893
			c-1.1-0.398-2.072-1.514-3.27-1.898c-0.393-0.131-0.902-0.082-1.371-0.23c-0.563-0.186-0.975-0.678-1.516-0.756
			c-0.172-0.027-0.365-0.035-0.568-0.035c-0.23,0-0.48,0.008-0.729,0.023c-0.236,0.006-0.473,0.014-0.703,0.014
			c-0.096,0-0.188,0-0.281-0.002C236.72,148.091,236.017,147.966,235.38,147.966"/>
	</g>
	<path d="M97.113,221.845v-6.967h3.355v0.936h-2.772v1.938h1.694v0.924h-1.694v2.215h2.798v0.955H97.113z"/>
	<path d="M105.837,214.878v5.998h2.538v-5.998h0.573v5.318c0,0.643-0.057,1.078-0.169,1.307c-0.113,0.229-0.327,0.342-0.641,0.342
		h-2.066c-0.316,0-0.532-0.115-0.646-0.35c-0.114-0.232-0.171-0.666-0.171-1.299v-5.318H105.837z"/>
	<path d="M114.136,221.845v-6.967h0.583v6.967H114.136z"/>
	<path d="M121.251,215.827v6.018h-0.58v-6.018h-1.592v-0.949h3.771v0.949H121.251z"/>
	<path d="M127.204,221.845v-6.967h0.583v6.967H127.204z"/>
	<path d="M138.344,218.741v-0.99h1.47v0.99H138.344z"/>
	<path d="M150.371,221.845v-6.967h2.808c0.262,0,0.45,0.105,0.565,0.32c0.115,0.213,0.173,0.557,0.173,1.031v0.811
		c0,0.373-0.046,0.652-0.14,0.836c-0.094,0.186-0.24,0.303-0.44,0.35c0.196,0.049,0.345,0.189,0.447,0.42s0.153,0.545,0.153,0.945
		v0.891c0,0.461-0.08,0.803-0.239,1.027c-0.16,0.225-0.402,0.336-0.727,0.336H150.371z M153.321,217.118v-0.697
		c0-0.229-0.025-0.387-0.074-0.475s-0.144-0.133-0.282-0.133h-2.011v1.926h2.011c0.134,0,0.227-0.047,0.278-0.139
		C153.295,217.507,153.321,217.347,153.321,217.118z M153.351,220.065v-0.58c0-0.316-0.028-0.535-0.084-0.656
		c-0.056-0.121-0.156-0.182-0.301-0.182h-2.011v2.242h2.011c0.147,0,0.248-0.061,0.303-0.178
		C153.323,220.593,153.351,220.378,153.351,220.065z"/>
	<path d="M158.917,221.845v-6.967h0.583v6.967H158.917z"/>
	<path d="M164.682,221.845v-6.967h0.583v5.998h2.637v0.969H164.682z"/>
	<path d="M172.464,221.845v-6.967h2.808c0.262,0,0.45,0.105,0.565,0.32c0.115,0.213,0.173,0.557,0.173,1.031v0.811
		c0,0.373-0.047,0.652-0.14,0.836c-0.094,0.186-0.24,0.303-0.44,0.35c0.195,0.049,0.345,0.189,0.447,0.42
		c0.102,0.23,0.152,0.545,0.152,0.945v0.891c0,0.461-0.079,0.803-0.238,1.027s-0.401,0.336-0.727,0.336H172.464z M175.413,217.118
		v-0.697c0-0.229-0.024-0.387-0.074-0.475c-0.049-0.088-0.143-0.133-0.281-0.133h-2.011v1.926h2.011
		c0.134,0,0.227-0.047,0.278-0.139C175.388,217.507,175.413,217.347,175.413,217.118z M175.443,220.065v-0.58
		c0-0.316-0.028-0.535-0.085-0.656c-0.055-0.121-0.156-0.182-0.301-0.182h-2.011v2.242h2.011c0.146,0,0.248-0.061,0.303-0.178
		C175.415,220.593,175.443,220.378,175.443,220.065z"/>
	<path d="M180.331,221.845l1.902-6.967h0.623l1.934,6.967h-0.639l-0.445-1.713h-2.357l-0.443,1.713H180.331z M181.593,219.241h1.875
		l-0.938-3.566L181.593,219.241z"/>
	<path d="M189.247,216.526c0-0.633,0.057-1.066,0.17-1.299s0.328-0.35,0.646-0.35h2.41c0.314,0,0.527,0.115,0.641,0.346
		s0.17,0.664,0.17,1.303v3.67c0,0.643-0.057,1.078-0.17,1.307s-0.326,0.342-0.641,0.342h-2.41c-0.318,0-0.533-0.115-0.646-0.35
		c-0.113-0.232-0.17-0.666-0.17-1.299V216.526z M189.827,220.876h2.885v-5.049h-2.885V220.876z"/>
	<path d="M203.802,218.741v-0.99h1.469v0.99H203.802z"/>
	<path d="M215.829,221.845v-6.967h0.582v6.967H215.829z"/>
	<path d="M221.593,221.845v-6.967h0.582v6.967H221.593z"/>
	<path d="M228.708,215.827v6.018h-0.58v-6.018h-1.592v-0.949h3.77v0.949H228.708z"/>
	<path d="M235.243,214.878v5.998h2.539v-5.998h0.572v5.318c0,0.643-0.057,1.078-0.17,1.307s-0.326,0.342-0.641,0.342h-2.066
		c-0.316,0-0.531-0.115-0.646-0.35c-0.113-0.232-0.17-0.666-0.17-1.299v-5.318H235.243z"/>
	<path d="M243.544,221.845v-6.967h3.354v0.936h-2.771v1.938h1.695v0.924h-1.695v2.215h2.799v0.955H243.544z"/>
</g>
</svg>
